<svg width="57" height="57" viewBox="0 0 57 57" fill="none" xmlns="http://www.w3.org/2000/svg">
<g clip-path="url(#clip0_656_13567)">
<circle cx="28.5" cy="28.5" r="28.5" fill="#FF2C4C" fill-opacity="0.05"/>
<path fill-rule="evenodd" clip-rule="evenodd" d="M26.5875 17.9292C27.3432 18.5806 29.6566 18.5806 30.4123 17.9292C31.7927 16.7392 33.9799 15.7625 37.2449 16.051C43.1647 16.574 44.1962 22.6507 43.972 25.2658C43.972 27.4451 43.2992 31.0878 39.263 35.7262C36.8331 38.5186 33.0588 41.0865 30.4966 42.8298C29.6806 43.385 28.9875 43.8565 28.5 44.225C28.5 44.2251 28.5 44.2251 28.5 44.2251V44.2251C28.5 44.2252 28.5 44.2252 28.4999 44.2252C28.4999 44.2252 28.4999 44.2251 28.4999 44.2251C28.4999 44.2251 28.4999 44.2251 28.4999 44.2251C28.4999 44.2252 28.4998 44.2251 28.4998 44.2251V44.2251C28.4998 44.2251 28.4998 44.2251 28.4998 44.2251C28.0123 43.8566 27.3192 43.385 26.5032 42.8298C23.941 41.0865 20.1667 38.5186 17.7368 35.7262C13.7006 31.0878 13.0279 27.4451 13.0278 25.2658C12.8036 22.6507 13.8352 16.574 19.7549 16.051C23.0199 15.7626 25.2072 16.7392 26.5875 17.9292Z" fill="#FF6980"/>
<path d="M37.2449 16.051L37.1789 16.7981L37.2449 16.051ZM43.972 25.2658L43.2247 25.2017L43.222 25.2337V25.2658L43.972 25.2658ZM39.263 35.7262L38.6972 35.2338L39.263 35.7262ZM30.4966 42.8298L30.0747 42.2097V42.2097L30.4966 42.8298ZM26.5032 42.8298L26.9251 42.2097L26.5032 42.8298ZM17.7368 35.7262L18.3026 35.2338H18.3026L17.7368 35.7262ZM13.0278 25.2658L13.7778 25.2658L13.7778 25.2337L13.7751 25.2018L13.0278 25.2658ZM19.7549 16.051L19.6889 15.3039L19.7549 16.051ZM28.4998 44.2251L28.0476 44.8234L28.4998 44.2251ZM28.4999 44.2251L28.9489 43.6244L28.4999 44.2251ZM28.5 44.225L28.0478 43.6267L28.5 44.225ZM28.4999 44.2252L28.9505 43.6256L28.4999 44.2252ZM30.4123 17.9292L29.9226 17.3611L30.4123 17.9292ZM37.3109 15.3039C33.8497 14.9981 31.4606 16.0352 29.9226 17.3611L30.902 18.4972C32.1247 17.4432 34.1101 16.527 37.1789 16.7981L37.3109 15.3039ZM44.7192 25.3299C44.8408 23.9122 44.6263 21.5942 43.5813 19.5345C42.5167 17.4364 40.5744 15.5923 37.3109 15.3039L37.1789 16.7981C39.8352 17.0328 41.3685 18.4885 42.2436 20.2132C43.1382 21.9765 43.3274 24.0043 43.2247 25.2017L44.7192 25.3299ZM39.8288 36.2185C43.9792 31.4489 44.722 27.6329 44.722 25.2658L43.222 25.2658C43.222 27.2572 42.6192 30.7267 38.6972 35.2338L39.8288 36.2185ZM30.9185 43.4499C33.461 41.72 37.3231 39.098 39.8288 36.2185L38.6972 35.2338C36.3431 37.9391 32.6566 40.453 30.0747 42.2097L30.9185 43.4499ZM28.9523 44.8234C29.4213 44.4688 30.0958 44.0096 30.9185 43.4499L30.0747 42.2097C29.2654 42.7604 28.5538 43.2443 28.0478 43.6267L28.9523 44.8234ZM27.75 44.2251V44.2251H29.25V44.2251H27.75ZM28.9505 43.6256C28.9501 43.6253 28.9495 43.6249 28.9489 43.6244L28.0509 44.8259C28.0503 44.8254 28.0498 44.8251 28.0493 44.8247L28.9505 43.6256ZM27.7498 44.2251V44.2251H29.2498V44.2251H27.7498ZM28.9521 43.6268C28.4461 43.2443 27.7345 42.7604 26.9251 42.2097L26.0813 43.4499C26.904 44.0096 27.5785 44.4688 28.0476 44.8234L28.9521 43.6268ZM26.9251 42.2097C24.3432 40.453 20.6567 37.9392 18.3026 35.2338L17.1711 36.2185C19.6767 39.098 23.5389 41.72 26.0813 43.4499L26.9251 42.2097ZM18.3026 35.2338C14.3806 30.7267 13.7779 27.2572 13.7778 25.2658L12.2778 25.2658C12.2779 27.6329 13.0206 31.4489 17.1711 36.2185L18.3026 35.2338ZM13.7751 25.2018C13.6724 24.0043 13.8616 21.9765 14.7562 20.2133C15.6313 18.4885 17.1647 17.0328 19.8209 16.7981L19.6889 15.3039C16.4254 15.5923 14.4831 17.4364 13.4186 19.5345C12.3735 21.5942 12.159 23.9122 12.2806 25.3299L13.7751 25.2018ZM19.8209 16.7981C22.8897 16.527 24.8751 17.4432 26.0978 18.4972L27.0772 17.3611C25.5392 16.0353 23.1501 14.9981 19.6889 15.3039L19.8209 16.7981ZM29.2498 44.2251C29.2498 43.9947 29.1433 43.7713 28.9521 43.6268L28.0476 44.8234C27.8563 44.6788 27.7498 44.4555 27.7498 44.2251H29.2498ZM28.0498 43.6252C28.5493 43.2504 29.2498 43.6135 29.2498 44.2251H27.7498C27.7498 44.8368 28.4504 45.1999 28.95 44.8251L28.0498 43.6252ZM28.9489 43.6244C28.6706 43.4164 28.3043 43.4343 28.0498 43.6252L28.95 44.8251C28.6955 45.016 28.3292 45.0339 28.0509 44.8259L28.9489 43.6244ZM28.0478 43.6267C27.8565 43.7713 27.75 43.9947 27.75 44.2251H29.25C29.25 44.4555 29.1435 44.6788 28.9523 44.8234L28.0478 43.6267ZM27.75 44.2251C27.75 43.6082 28.4551 43.2532 28.9505 43.6256L28.0493 44.8247C28.5449 45.1971 29.25 44.8421 29.25 44.2251H27.75ZM29.9226 17.3611C29.8621 17.4133 29.7067 17.4983 29.425 17.5668C29.1575 17.6318 28.8344 17.6677 28.4999 17.6677C28.1654 17.6677 27.8424 17.6318 27.5748 17.5668C27.2932 17.4983 27.1378 17.4133 27.0772 17.3611L26.0978 18.4972C26.4151 18.7708 26.8323 18.93 27.2205 19.0244C27.6229 19.1222 28.0672 19.1677 28.4999 19.1677C28.9327 19.1677 29.3769 19.1222 29.7793 19.0243C30.1675 18.93 30.5847 18.7707 30.902 18.4972L29.9226 17.3611Z" fill="#EF596F"/>
<path d="M49.5346 2.45234L50.9018 6.72172C50.9602 6.90443 51.0761 7.04933 51.2225 7.12251L54.638 8.83157C55.1207 9.07316 55.1207 9.92684 54.638 10.1684L51.2225 11.8775C51.0763 11.9507 50.9605 12.0956 50.9018 12.2783L49.5346 16.5477C49.3415 17.1508 48.6583 17.1508 48.4653 16.5477L47.0981 12.2783C47.0396 12.0956 46.9237 11.9507 46.7773 11.8775L43.3618 10.1684C42.8794 9.92684 42.8794 9.07316 43.3618 8.83157L46.7773 7.12251C46.9235 7.04933 47.0394 6.90443 47.0981 6.72172L48.4653 2.45234C48.6583 1.84922 49.3413 1.84922 49.5346 2.45234Z" fill="#FFC7B6"/>
</g>
<defs>
<clipPath id="clip0_656_13567">
<rect width="57" height="57" fill="white"/>
</clipPath>
</defs>
</svg>
