<svg width="19" height="19" viewBox="0 0 19 19" fill="none" xmlns="http://www.w3.org/2000/svg">
<g clip-path="url(#clip0_1535_18101)">
<path d="M11.875 6.33333H13.779C14.2429 6.33326 14.7011 6.43511 15.1213 6.63169C15.5415 6.82827 15.9134 7.11476 16.2106 7.47092C16.5079 7.82708 16.7232 8.24419 16.8415 8.69277C16.9597 9.14134 16.978 9.61042 16.895 10.0668L16.1745 14.0252C16.0418 14.7545 15.6574 15.4142 15.0883 15.8893C14.5192 16.3644 13.8015 16.6247 13.0601 16.625H6.33333V7.12499L7.77496 2.54283C8.00929 1.99658 8.61413 1.50099 9.37729 1.64824C10.5878 1.8802 11.875 2.82308 11.875 4.35416V6.33333ZM4.75 7.12499C4.12011 7.12499 3.51602 7.37522 3.07062 7.82062C2.62522 8.26602 2.375 8.87011 2.375 9.49999V14.25C2.375 14.8799 2.62522 15.484 3.07062 15.9294C3.51602 16.3748 4.12011 16.625 4.75 16.625V7.12499Z" fill="#9FA4A9"/>
</g>
<defs>
<clipPath id="clip0_1535_18101">
<rect width="19" height="19" fill="white"/>
</clipPath>
</defs>
</svg>
