<svg width="24" height="24" viewBox="0 0 24 24" fill="none" xmlns="http://www.w3.org/2000/svg">
<g clip-path="url(#clip0_1661_44258)">
<path d="M10.0769 2.61415C10.4149 1.85415 11.4559 1.81715 11.8639 2.50015L11.9229 2.61415L12.9649 4.95915C13.8748 7.00606 15.3879 8.72641 17.3019 9.89015L17.6239 10.0791L19.4739 11.1191C19.621 11.2015 19.7451 11.3193 19.835 11.4619C19.9248 11.6045 19.9776 11.7673 19.9884 11.9355C19.9993 12.1037 19.9678 12.272 19.897 12.4249C19.8262 12.5778 19.7182 12.7106 19.5829 12.8111L19.4749 12.8811L17.6239 13.9211C15.6713 15.0195 14.1006 16.6879 13.1219 18.7031L12.9649 19.0411L11.9229 21.3861C11.5849 22.1461 10.5439 22.1831 10.1359 21.5001L10.0769 21.3861L9.0349 19.0411C8.12503 16.9942 6.61192 15.2739 4.6979 14.1101L4.3759 13.9211L2.5259 12.8811C2.37883 12.7988 2.2547 12.681 2.16483 12.5384C2.07496 12.3958 2.0222 12.233 2.01137 12.0648C2.00053 11.8966 2.03196 11.7283 2.10279 11.5754C2.17363 11.4225 2.28161 11.2897 2.4169 11.1891L2.5249 11.1191L4.3759 10.0791C6.32852 8.98079 7.89922 7.31241 8.8779 5.29715L9.0349 4.95915L10.0769 2.61415ZM19.2209 2.12115C19.7173 3.24875 20.5638 4.18641 21.6349 4.79515C21.7949 4.88515 21.7949 5.11515 21.6349 5.20515C20.5632 5.81398 19.7164 6.75203 19.2199 7.88015C19.2009 7.92262 19.17 7.95868 19.131 7.98398C19.092 8.00929 19.0464 8.02275 18.9999 8.02275C18.9534 8.02275 18.9079 8.00929 18.8688 7.98398C18.8298 7.95868 18.7989 7.92262 18.7799 7.88015C18.2833 6.7524 17.4364 5.81472 16.3649 5.20615C16.3287 5.18552 16.2987 5.15569 16.2778 5.11968C16.2568 5.08368 16.2458 5.04278 16.2458 5.00115C16.2458 4.95951 16.2568 4.91861 16.2778 4.88261C16.2987 4.84661 16.3287 4.81678 16.3649 4.79615C17.4367 4.18706 18.2836 3.24864 18.7799 2.12015C18.7989 2.07768 18.8298 2.04161 18.8688 2.01631C18.9079 1.991 18.9534 1.97754 18.9999 1.97754C19.0464 1.97754 19.092 1.991 19.131 2.01631C19.17 2.04161 19.2009 2.07768 19.2199 2.12015L19.2209 2.12115Z" fill="#4A4A4A"/>
</g>
<defs>
<clipPath id="clip0_1661_44258">
<rect width="24" height="24" fill="white"/>
</clipPath>
</defs>
</svg>
