<svg width="40" height="40" viewBox="0 0 40 40" fill="none" xmlns="http://www.w3.org/2000/svg">
<path fill-rule="evenodd" clip-rule="evenodd" d="M2.83008 10.0621C2.83008 9.27193 3.47066 8.63135 4.26085 8.63135H9.98393C10.7741 8.63135 11.4147 9.27192 11.4147 10.0621V15.7852H28.584V10.0621C28.584 9.27193 29.2246 8.63135 30.0148 8.63135H35.7378C36.528 8.63135 37.1686 9.27192 37.1686 10.0621V31.5237C37.1686 32.3138 36.528 32.9544 35.7378 32.9544H30.0148C29.2246 32.9544 28.584 32.3138 28.584 31.5237V25.8005H11.4147V31.5237C11.4147 32.3138 10.7741 32.9544 9.98392 32.9544H4.26085C3.47065 32.9544 2.83008 32.3138 2.83008 31.5237V10.0621Z" fill="#80CAFF"/>
<path d="M11.4147 15.7852H10.6647V16.5352H11.4147V15.7852ZM28.584 15.7852V16.5352H29.334V15.7852H28.584ZM28.584 25.8005H29.334V25.0505H28.584V25.8005ZM11.4147 25.8005V25.0505H10.6647V25.8005H11.4147ZM4.26085 7.88135C3.05644 7.88135 2.08008 8.85771 2.08008 10.0621H3.58008C3.58008 9.68614 3.88487 9.38135 4.26085 9.38135V7.88135ZM9.98393 7.88135H4.26085V9.38135H9.98393V7.88135ZM12.1647 10.0621C12.1647 8.85771 11.1883 7.88135 9.98393 7.88135V9.38135C10.3599 9.38135 10.6647 9.68614 10.6647 10.0621H12.1647ZM12.1647 15.7852V10.0621H10.6647V15.7852H12.1647ZM11.4147 16.5352H28.584V15.0352H11.4147V16.5352ZM27.834 10.0621V15.7852H29.334V10.0621H27.834ZM30.0148 7.88135C28.8103 7.88135 27.834 8.85771 27.834 10.0621H29.334C29.334 9.68614 29.6388 9.38135 30.0148 9.38135V7.88135ZM35.7378 7.88135H30.0148V9.38135H35.7378V7.88135ZM37.9186 10.0621C37.9186 8.85771 36.9422 7.88135 35.7378 7.88135V9.38135C36.1138 9.38135 36.4186 9.68614 36.4186 10.0621H37.9186ZM37.9186 31.5237V10.0621H36.4186V31.5237H37.9186ZM35.7378 33.7044C36.9422 33.7044 37.9186 32.7281 37.9186 31.5237H36.4186C36.4186 31.8996 36.1138 32.2044 35.7378 32.2044V33.7044ZM30.0148 33.7044H35.7378V32.2044H30.0148V33.7044ZM27.834 31.5237C27.834 32.7281 28.8103 33.7044 30.0148 33.7044V32.2044C29.6388 32.2044 29.334 31.8996 29.334 31.5237H27.834ZM27.834 25.8005V31.5237H29.334V25.8005H27.834ZM28.584 25.0505H11.4147V26.5505H28.584V25.0505ZM12.1647 31.5237V25.8005H10.6647V31.5237H12.1647ZM9.98392 33.7044C11.1883 33.7044 12.1647 32.7281 12.1647 31.5237H10.6647C10.6647 31.8996 10.3599 32.2044 9.98392 32.2044V33.7044ZM4.26085 33.7044H9.98392V32.2044H4.26085V33.7044ZM2.08008 31.5237C2.08008 32.7281 3.05644 33.7044 4.26085 33.7044V32.2044C3.88487 32.2044 3.58008 31.8996 3.58008 31.5237H2.08008ZM2.08008 10.0621V31.5237H3.58008V10.0621H2.08008Z" fill="#74B9EB"/>
</svg>
