<svg width="40" height="40" viewBox="0 0 40 40" fill="none" xmlns="http://www.w3.org/2000/svg">
<path fill-rule="evenodd" clip-rule="evenodd" d="M7 11.2923C7 8.92173 8.92173 7 11.2923 7H28.4615C30.8321 7 32.7538 8.92173 32.7538 11.2923C32.7538 13.6546 30.8455 15.5712 28.4862 15.5845C30.8455 15.5978 32.7538 17.5144 32.7538 19.8768C32.7538 21.8832 31.3771 23.5681 29.5168 24.0384C31.3771 24.5087 32.7538 26.1936 32.7538 28.2C32.7538 30.5706 30.8321 32.4923 28.4615 32.4923H11.2923C8.92173 32.4923 7 30.5706 7 28.2C7 26.1936 8.37671 24.5087 10.237 24.0384C8.37671 23.5681 7 21.8832 7 19.8768C7 17.5144 8.90839 15.5978 11.2676 15.5845C8.90839 15.5712 7 13.6546 7 11.2923Z" fill="#FFCE57"/>
<path d="M28.4862 15.5845L28.482 14.8346V16.3345L28.4862 15.5845ZM29.5168 24.0384L29.333 23.3113V24.7655L29.5168 24.0384ZM10.237 24.0384L10.4208 24.7655V23.3113L10.237 24.0384ZM11.2676 15.5845L11.2718 16.3345V14.8346L11.2676 15.5845ZM7.75 11.2923C7.75 9.33595 9.33595 7.75 11.2923 7.75V6.25C8.50752 6.25 6.25 8.50752 6.25 11.2923H7.75ZM11.2923 7.75H28.4615V6.25H11.2923V7.75ZM28.4615 7.75C30.4179 7.75 32.0038 9.33595 32.0038 11.2923H33.5038C33.5038 8.50752 31.2463 6.25 28.4615 6.25V7.75ZM32.0038 11.2923C32.0038 13.2418 30.4289 14.8236 28.482 14.8346L28.4905 16.3345C31.262 16.3189 33.5038 14.0674 33.5038 11.2923H32.0038ZM28.482 16.3345C30.4289 16.3455 32.0038 17.9272 32.0038 19.8768H33.5038C33.5038 17.1016 31.262 14.8502 28.4905 14.8346L28.482 16.3345ZM32.0038 19.8768C32.0038 21.5316 30.8684 22.9231 29.333 23.3113L29.7006 24.7655C31.8859 24.2131 33.5038 22.2348 33.5038 19.8768H32.0038ZM29.333 24.7655C30.8684 25.1537 32.0038 26.5452 32.0038 28.2H33.5038C33.5038 25.842 31.8859 23.8637 29.7006 23.3113L29.333 24.7655ZM32.0038 28.2C32.0038 30.1564 30.4179 31.7423 28.4615 31.7423V33.2423C31.2463 33.2423 33.5038 30.9848 33.5038 28.2H32.0038ZM28.4615 31.7423H11.2923V33.2423H28.4615V31.7423ZM11.2923 31.7423C9.33594 31.7423 7.75 30.1564 7.75 28.2H6.25C6.25 30.9848 8.50752 33.2423 11.2923 33.2423V31.7423ZM7.75 28.2C7.75 26.5452 8.88545 25.1537 10.4208 24.7655L10.0532 23.3113C7.86796 23.8637 6.25 25.842 6.25 28.2H7.75ZM10.4208 23.3113C8.88546 22.9231 7.75 21.5316 7.75 19.8768H6.25C6.25 22.2348 7.86796 24.2131 10.0532 24.7655L10.4208 23.3113ZM7.75 19.8768C7.75 17.9272 9.32494 16.3455 11.2718 16.3345L11.2634 14.8346C8.49184 14.8502 6.25 17.1016 6.25 19.8768H7.75ZM11.2718 14.8346C9.32494 14.8236 7.75 13.2418 7.75 11.2923H6.25C6.25 14.0674 8.49184 16.3189 11.2634 16.3345L11.2718 14.8346Z" fill="#EDBF4F"/>
</svg>
