<svg width="40" height="40" viewBox="0 0 40 40" fill="none" xmlns="http://www.w3.org/2000/svg">
<path fill-rule="evenodd" clip-rule="evenodd" d="M26.4493 2.90771C25.6591 2.90771 25.0186 3.54829 25.0186 4.33848V13.0073H14.3302C13.54 13.0073 12.8994 13.6479 12.8994 14.4381V23.1069H4.23057C3.44038 23.1069 2.7998 23.7475 2.7998 24.5377V35.8155C2.7998 36.6057 3.44038 37.2463 4.23057 37.2463H35.7075C36.4977 37.2463 37.1383 36.6057 37.1383 35.8155V31.789L37.1383 31.7756V14.4381C37.1383 14.4279 37.1382 14.4178 37.138 14.4077V4.33848C37.138 3.54829 36.4974 2.90771 35.7072 2.90771H26.4493Z" fill="#84E0A3"/>
<path d="M25.0186 13.0073V13.7573H25.7686V13.0073H25.0186ZM12.8994 23.1069V23.8569H13.6494V23.1069H12.8994ZM37.1383 31.789L36.3883 31.7856V31.789H37.1383ZM37.1383 31.7756L37.8883 31.7791V31.7756H37.1383ZM37.138 14.4077H36.388V14.4155L36.3882 14.4233L37.138 14.4077ZM25.7686 4.33848C25.7686 3.96251 26.0733 3.65771 26.4493 3.65771V2.15771C25.2449 2.15771 24.2686 3.13408 24.2686 4.33848H25.7686ZM25.7686 13.0073V4.33848H24.2686V13.0073H25.7686ZM25.0186 12.2573H14.3302V13.7573H25.0186V12.2573ZM14.3302 12.2573C13.1258 12.2573 12.1494 13.2337 12.1494 14.4381H13.6494C13.6494 14.0621 13.9542 13.7573 14.3302 13.7573V12.2573ZM12.1494 14.4381V23.1069H13.6494V14.4381H12.1494ZM12.8994 22.3569H4.23057V23.8569H12.8994V22.3569ZM4.23057 22.3569C3.02617 22.3569 2.0498 23.3333 2.0498 24.5377H3.5498C3.5498 24.1617 3.85459 23.8569 4.23057 23.8569V22.3569ZM2.0498 24.5377V35.8155H3.5498V24.5377H2.0498ZM2.0498 35.8155C2.0498 37.0199 3.02617 37.9963 4.23057 37.9963V36.4963C3.85459 36.4963 3.5498 36.1915 3.5498 35.8155H2.0498ZM4.23057 37.9963H35.7075V36.4963H4.23057V37.9963ZM35.7075 37.9963C36.9119 37.9963 37.8883 37.0199 37.8883 35.8155H36.3883C36.3883 36.1915 36.0835 36.4963 35.7075 36.4963V37.9963ZM37.8883 35.8155V31.789H36.3883V35.8155H37.8883ZM37.8883 31.7924L37.8883 31.7791L36.3883 31.7722L36.3883 31.7856L37.8883 31.7924ZM37.8883 31.7756V14.4381H36.3883V31.7756H37.8883ZM37.8883 14.4381C37.8883 14.4227 37.8882 14.4074 37.8879 14.3921L36.3882 14.4233C36.3883 14.4282 36.3883 14.4332 36.3883 14.4381H37.8883ZM36.388 4.33848V14.4077H37.888V4.33848H36.388ZM35.7072 3.65771C36.0832 3.65771 36.388 3.96251 36.388 4.33848H37.888C37.888 3.13408 36.9116 2.15771 35.7072 2.15771V3.65771ZM26.4493 3.65771H35.7072V2.15771H26.4493V3.65771Z" fill="#79D096"/>
</svg>
