<svg width="18" height="22" viewBox="0 0 18 22" fill="none" xmlns="http://www.w3.org/2000/svg">
<path d="M9.80189 0.663438L11.8526 6.92519C11.9404 7.19316 12.1141 7.40569 12.3337 7.51302L17.457 10.0196C18.181 10.374 18.181 11.626 17.457 11.9804L12.3337 14.487C12.1145 14.5943 11.9407 14.8068 11.8526 15.0748L9.80189 21.3366C9.51224 22.2211 8.48752 22.2211 8.19788 21.3366L6.14711 15.0748C6.0594 14.8068 5.88561 14.5943 5.66601 14.487L0.542717 11.9804C-0.180906 11.626 -0.180906 10.374 0.542717 10.0196L5.66601 7.51302C5.88528 7.40569 6.05907 7.19316 6.14711 6.92519L8.19788 0.663438C8.48752 -0.221146 9.51192 -0.221146 9.80189 0.663438Z" fill="#FFC7B6"/>
</svg>
