<svg width="40" height="40" viewBox="0 0 40 40" fill="none" xmlns="http://www.w3.org/2000/svg">
<path fill-rule="evenodd" clip-rule="evenodd" d="M20.0306 37.2002C29.5129 37.2002 37.1998 29.5133 37.1998 20.031C37.1998 10.5487 29.5129 2.86177 20.0306 2.86177C10.5483 2.86177 2.86133 10.5487 2.86133 20.031C2.86133 29.5133 10.5483 37.2002 20.0306 37.2002ZM20.0313 26.7491C23.7417 26.7491 26.7496 23.7412 26.7496 20.0307C26.7496 16.3203 23.7417 13.3123 20.0313 13.3123C16.3208 13.3123 13.3129 16.3203 13.3129 20.0307C13.3129 23.7412 16.3208 26.7491 20.0313 26.7491Z" fill="#8AB9FF"/>
<path d="M36.4498 20.031C36.4498 29.0991 29.0987 36.4502 20.0306 36.4502V37.9502C29.9271 37.9502 37.9498 29.9275 37.9498 20.031H36.4498ZM20.0306 3.61177C29.0987 3.61177 36.4498 10.9629 36.4498 20.031H37.9498C37.9498 10.1345 29.9271 2.11177 20.0306 2.11177V3.61177ZM3.61133 20.031C3.61133 10.9629 10.9625 3.61177 20.0306 3.61177V2.11177C10.134 2.11177 2.11133 10.1345 2.11133 20.031H3.61133ZM20.0306 36.4502C10.9625 36.4502 3.61133 29.0991 3.61133 20.031H2.11133C2.11133 29.9275 10.134 37.9502 20.0306 37.9502V36.4502ZM25.9996 20.0307C25.9996 23.327 23.3275 25.9991 20.0313 25.9991V27.4991C24.1559 27.4991 27.4996 24.1554 27.4996 20.0307H25.9996ZM20.0313 14.0623C23.3275 14.0623 25.9996 16.7345 25.9996 20.0307H27.4996C27.4996 15.9061 24.1559 12.5623 20.0313 12.5623V14.0623ZM14.0629 20.0307C14.0629 16.7345 16.735 14.0623 20.0313 14.0623V12.5623C15.9066 12.5623 12.5629 15.9061 12.5629 20.0307H14.0629ZM20.0313 25.9991C16.735 25.9991 14.0629 23.327 14.0629 20.0307H12.5629C12.5629 24.1554 15.9066 27.4991 20.0313 27.4991V25.9991Z" fill="#78A5E7"/>
</svg>
