<svg width="30" height="30" viewBox="0 0 30 30" fill="none" xmlns="http://www.w3.org/2000/svg">
<path d="M26.2584 14.6195C25.9514 15.0159 25.9515 15.5697 26.2585 15.966C29.1493 19.6971 26.0727 25.1288 21.0614 24.5531C20.5841 24.4983 20.1264 24.7598 19.9312 25.1989C17.9837 29.5814 11.5037 29.5814 9.5562 25.1989C9.36106 24.7598 8.90337 24.4983 8.42598 24.5531C3.41513 25.1287 0.338737 19.6983 3.22904 15.9658C3.53598 15.5695 3.53594 15.0157 3.22895 14.6193C0.338041 10.8872 3.41474 5.45651 8.42598 6.03216C8.90337 6.087 9.36106 5.82547 9.5562 5.38635C11.5037 1.00387 17.9837 1.00387 19.9312 5.38635C20.1264 5.82547 20.5841 6.087 21.0614 6.03216C26.0723 5.45656 29.1487 10.887 26.2584 14.6195Z" fill="white" stroke="#C0C2C6" stroke-width="2.19899" stroke-linejoin="round"/>
</svg>
