<svg width="40" height="40" viewBox="0 0 40 40" fill="none" xmlns="http://www.w3.org/2000/svg">
<path fill-rule="evenodd" clip-rule="evenodd" d="M13.8078 22.2588C12.6753 23.7028 12 25.5225 12 27.5C12 32.1944 15.8056 36 20.5 36C25.1944 36 29 32.1944 29 27.5C29 25.2083 28.0931 23.1285 26.6186 21.5998L26.3271 20.6938C26.1155 20.0364 26.1373 19.3262 26.3886 18.6829L26.4219 18.5976C28.012 17.053 29 14.8919 29 12.5C29 7.80558 25.1944 4 20.5 4C15.8056 4 12 7.80558 12 12.5C12 14.5373 12.7168 16.4072 13.9119 17.8713L14.2244 18.8311C14.4043 19.3834 14.4199 19.9761 14.2695 20.5371L13.8078 22.2588Z" fill="#FF6E73"/>
<path d="M13.8078 22.2588L14.3979 22.7216L14.4925 22.6011L14.5322 22.4531L13.8078 22.2588ZM26.6186 21.5998L25.9047 21.8295L25.958 21.9952L26.0788 22.1204L26.6186 21.5998ZM26.3271 20.6938L27.041 20.4641L26.3271 20.6938ZM26.3886 18.6829L27.0872 18.9559L27.0872 18.9559L26.3886 18.6829ZM26.4219 18.5976L25.8994 18.0596L25.7826 18.173L25.7234 18.3246L26.4219 18.5976ZM13.9119 17.8713L14.625 17.6391L14.5816 17.5057L14.4929 17.3971L13.9119 17.8713ZM14.2244 18.8311L13.5113 19.0634L13.5113 19.0634L14.2244 18.8311ZM14.2695 20.5371L14.9939 20.7313V20.7313L14.2695 20.5371ZM13.2176 21.796C11.9852 23.3673 11.25 25.3488 11.25 27.5H12.75C12.75 25.6963 13.3653 24.0383 14.3979 22.7216L13.2176 21.796ZM11.25 27.5C11.25 32.6086 15.3914 36.75 20.5 36.75V35.25C16.2198 35.25 12.75 31.7802 12.75 27.5H11.25ZM20.5 36.75C25.6086 36.75 29.75 32.6086 29.75 27.5H28.25C28.25 31.7802 24.7802 35.25 20.5 35.25V36.75ZM29.75 27.5C29.75 25.0064 28.7623 22.742 27.1584 21.0791L26.0788 22.1204C27.4239 23.515 28.25 25.4102 28.25 27.5H29.75ZM25.6131 20.9235L25.9047 21.8295L27.3326 21.37L27.041 20.4641L25.6131 20.9235ZM25.69 18.41C25.3759 19.214 25.3487 20.1018 25.6131 20.9235L27.041 20.4641C26.8824 19.971 26.8987 19.4383 27.0872 18.9559L25.69 18.41ZM25.7234 18.3246L25.69 18.41L27.0872 18.9559L27.1205 18.8706L25.7234 18.3246ZM26.9445 19.1356C28.674 17.4556 29.75 15.1028 29.75 12.5H28.25C28.25 14.681 27.3501 16.6504 25.8994 18.0596L26.9445 19.1356ZM29.75 12.5C29.75 7.39137 25.6086 3.25 20.5 3.25V4.75C24.7802 4.75 28.25 8.21979 28.25 12.5H29.75ZM20.5 3.25C15.3914 3.25 11.25 7.39137 11.25 12.5H12.75C12.75 8.21979 16.2198 4.75 20.5 4.75V3.25ZM11.25 12.5C11.25 14.7164 12.0305 16.7525 13.3309 18.3456L14.4929 17.3971C13.4031 16.062 12.75 14.3583 12.75 12.5H11.25ZM14.9376 18.5989L14.625 17.6391L13.1987 18.1036L13.5113 19.0634L14.9376 18.5989ZM14.9939 20.7313C15.1819 20.0301 15.1624 19.2893 14.9376 18.5989L13.5113 19.0634C13.6462 19.4776 13.6579 19.922 13.5451 20.3428L14.9939 20.7313ZM14.5322 22.4531L14.9939 20.7313L13.5451 20.3428L13.0834 22.0645L14.5322 22.4531Z" fill="#E86266"/>
</svg>
