<svg width="19" height="19" viewBox="0 0 19 19" fill="none" xmlns="http://www.w3.org/2000/svg">
<g clip-path="url(#clip0_1535_18091)">
<path fill-rule="evenodd" clip-rule="evenodd" d="M14.2503 1.58334C14.6702 1.58334 15.073 1.75016 15.3699 2.04709C15.6668 2.34402 15.8337 2.74675 15.8337 3.16668V11.0833H10.6878C10.3729 11.0833 10.0708 11.2085 9.84813 11.4312C9.62544 11.6539 9.50032 11.9559 9.50032 12.2708V17.4167H4.75033C4.3304 17.4167 3.92767 17.2499 3.63074 16.9529C3.33381 16.656 3.16699 16.2533 3.16699 15.8333V3.16668C3.16699 2.74675 3.33381 2.34402 3.63074 2.04709C3.92767 1.75016 4.3304 1.58334 4.75033 1.58334H14.2503ZM15.7996 12.6667C15.736 12.9666 15.5867 13.2416 15.3697 13.4583L11.8753 16.9528C11.6586 17.1697 11.3836 17.319 11.0837 17.3826V12.6667H15.7996ZM7.91699 8.70834H7.12532C6.91536 8.70834 6.714 8.79175 6.56553 8.94022C6.41707 9.08868 6.33366 9.29005 6.33366 9.50001C6.33366 9.70997 6.41707 9.91134 6.56553 10.0598C6.714 10.2083 6.91536 10.2917 7.12532 10.2917H7.91699C8.12695 10.2917 8.32832 10.2083 8.47678 10.0598C8.62525 9.91134 8.70866 9.70997 8.70866 9.50001C8.70866 9.29005 8.62525 9.08868 8.47678 8.94022C8.32832 8.79175 8.12695 8.70834 7.91699 8.70834ZM11.8753 5.54168H7.12532C6.91536 5.54168 6.714 5.62508 6.56553 5.77355C6.41707 5.92202 6.33366 6.12338 6.33366 6.33334C6.33366 6.54331 6.41707 6.74467 6.56553 6.89314C6.714 7.0416 6.91536 7.12501 7.12532 7.12501H11.8753C12.0853 7.12501 12.2867 7.0416 12.4351 6.89314C12.5836 6.74467 12.667 6.54331 12.667 6.33334C12.667 6.12338 12.5836 5.92202 12.4351 5.77355C12.2867 5.62508 12.0853 5.54168 11.8753 5.54168Z" fill="#9FA4A9"/>
</g>
<defs>
<clipPath id="clip0_1535_18091">
<rect width="19" height="19" fill="white"/>
</clipPath>
</defs>
</svg>
