<svg width="173" height="52" viewBox="0 0 173 52" fill="none" xmlns="http://www.w3.org/2000/svg">
<path d="M22.0432 26.7803C19.3907 24.7708 16.1459 23.4328 13.9337 23.4328C12.2353 23.4328 10.909 24.6227 10.909 26.0347C10.909 27.1505 11.6482 27.7481 13.6349 28.2664C16.2874 29.0861 18.0592 29.6784 19.7577 30.5721C23.6683 32.5076 25.8804 35.9292 25.8804 40.0224C25.8804 46.7914 20.0565 51.9264 12.3873 51.9264C8.03636 51.9264 3.83221 50.287 0.000244141 47.2409L4.05762 40.2498C6.48995 42.4074 9.58802 43.5973 12.6127 43.5973C14.7515 43.5973 15.9309 42.7035 15.9309 41.2175C15.9309 39.7315 15.045 38.9118 13.2784 38.4676C10.7727 37.87 9.88682 37.6479 8.41379 36.9816C3.25034 34.898 0.74462 31.5504 0.74462 27.013C0.74462 20.392 6.71536 15.257 14.3845 15.257C18.3685 15.257 21.7601 16.4469 25.9591 19.3502L22.0485 26.7909L22.0432 26.7803Z" fill="#FFF7E6"/>
<path d="M61.7941 21.7242C64.52 24.9237 65.7781 28.7154 65.7781 33.4802C65.7781 43.5968 57.3698 51.8572 47.0482 51.8572C36.7265 51.8572 29.2041 44.1204 29.2041 34.0038C29.2041 23.8872 37.539 14.9604 47.7873 14.9604C53.0975 14.9604 58.261 17.4142 61.7994 21.7295L61.7941 21.7242ZM39.227 33.697C39.227 38.4565 42.9122 42.5497 47.1163 42.5497C51.614 42.5497 55.598 38.1604 55.598 33.3269C55.598 28.4933 52.2064 24.4742 47.7821 24.4742C42.9908 24.4742 39.227 28.5674 39.227 33.697Z" fill="#FFF7E6"/>
<path d="M72.1211 20.0111V18.2977C72.1211 11.5286 73.007 7.43541 75.1458 4.5374C77.2112 1.70813 80.5294 0 84.1412 0C87.1659 0 89.745 0.967766 93.8024 3.56963L90.4946 11.8617C89.1998 10.5767 87.3127 9.89449 85.5409 9.89449C83.5489 9.89449 82.296 11.6819 82.296 14.58V20.0111H91.0713L90.9245 28.1181L82.296 28.1921V44.5596C82.296 44.8557 82.3694 45.8235 82.4428 47.3095C82.4428 48.9436 82.5896 49.9114 82.7363 50.8791H71.6022L71.6755 50.3609L71.8223 47.2355C71.9691 45.0038 71.9691 43.6658 72.0425 43.3644V28.1869L67.6916 28.1128L67.6182 20.1539L72.1159 20.0058L72.1211 20.0111Z" fill="#FFF7E6"/>
<path d="M116.149 28.6523H107.668L107.448 35.3368V36.8969C107.448 38.8324 107.594 39.6468 108.187 40.4665C108.926 41.5823 110.325 42.328 111.505 42.328C112.611 42.328 113.308 41.9684 115.148 41.0746L118.068 47.9812C114.97 50.361 111.945 51.4768 108.852 51.4768C102.656 51.4768 97.6448 46.7913 97.6448 41.0588L97.7182 28.4249L93.0737 28.2769L93.1471 20.0218L97.7916 19.9477L97.865 14.8921C97.7916 11.3119 97.7182 9.30229 97.6448 7.58887L107.966 7.6629C107.966 8.26049 107.966 8.63067 107.82 10.2648C107.746 11.4546 107.746 12.1263 107.746 13.0147L107.6 20.0905L116.228 20.2386L116.155 28.647L116.149 28.6523Z" fill="#FFF7E6"/>
<path d="M133.626 7.16117C133.626 10.6568 130.601 13.7822 127.21 13.7822C123.818 13.7822 120.867 10.6568 120.867 7.01309C120.867 3.36943 123.818 0.39209 127.136 0.39209C130.454 0.39209 133.626 3.59154 133.626 7.16117ZM132.965 16.3682L132.08 50.8852H121.758L121.538 16.3682H132.965Z" fill="#FFF7E6"/>
<path d="M170.793 47.0871C167.108 50.0645 161.132 52 155.675 52C145.275 52 137.385 44.0411 137.385 33.549C137.385 23.0569 145.568 15.0239 156.262 15.0239C166.217 15.0239 173 22.0891 173 32.3591C173 34.0725 172.853 35.6326 172.413 37.346L148.006 37.4941C149.406 41.0637 153.023 43.2214 157.667 43.2214C160.692 43.2214 163.271 42.4017 165.336 40.8416L170.793 47.0924V47.0871ZM163.124 29.6832C162.018 26.0395 159.214 23.8819 155.382 23.8819C151.765 23.8819 149.406 25.6694 147.933 29.6832H163.124Z" fill="#FFF7E6"/>
</svg>
