<svg width="22" height="22" viewBox="0 0 22 22" fill="none" xmlns="http://www.w3.org/2000/svg">
<g clip-path="url(#clip0_1452_33208)">
<path d="M11.9173 2.75C12.3798 2.74985 12.8253 2.92454 13.1644 3.23904C13.5036 3.55354 13.7113 3.98461 13.746 4.44583L13.7506 4.58333V8.25H16.5006C16.9631 8.24985 17.4086 8.42454 17.7478 8.73904C18.0869 9.05354 18.2947 9.48461 18.3294 9.94583L18.3339 10.0833V17.4167H19.2506C19.4843 17.4169 19.709 17.5064 19.8789 17.6668C20.0488 17.8272 20.151 18.0464 20.1647 18.2796C20.1784 18.5129 20.1025 18.7425 19.9525 18.9217C19.8026 19.1008 19.5899 19.216 19.3579 19.2436L19.2506 19.25H2.75061C2.51697 19.2497 2.29225 19.1603 2.12236 18.9999C1.95247 18.8395 1.85023 18.6203 1.83654 18.3871C1.82285 18.1538 1.89873 17.9242 2.04869 17.745C2.19865 17.5658 2.41136 17.4507 2.64336 17.4231L2.75061 17.4167H3.66728V4.58333C3.66713 4.12081 3.84182 3.67531 4.15632 3.33616C4.47082 2.99701 4.90189 2.78927 5.36311 2.75458L5.50061 2.75H11.9173ZM16.5006 10.0833H13.7506V17.4167H16.5006V10.0833ZM11.9173 4.58333H5.50061V17.4167H11.9173V4.58333ZM10.0839 13.75V15.5833H7.33395V13.75H10.0839ZM10.0839 10.0833V11.9167H7.33395V10.0833H10.0839ZM10.0839 6.41667V8.25H7.33395V6.41667H10.0839Z" fill="#9FA4A9"/>
</g>
<defs>
<clipPath id="clip0_1452_33208">
<rect width="22" height="22" fill="white"/>
</clipPath>
</defs>
</svg>
