<svg width="24" height="24" viewBox="0 0 24 24" fill="none" xmlns="http://www.w3.org/2000/svg">
<path d="M13.2004 11.9998L9.30039 8.0998C9.11706 7.91647 9.02539 7.68314 9.02539 7.3998C9.02539 7.11647 9.11706 6.88314 9.30039 6.6998C9.48372 6.51647 9.71706 6.4248 10.0004 6.4248C10.2837 6.4248 10.5171 6.51647 10.7004 6.6998L15.3004 11.2998C15.4004 11.3998 15.4714 11.5081 15.5134 11.6248C15.5554 11.7415 15.5761 11.8665 15.5754 11.9998C15.5754 12.1331 15.5547 12.2581 15.5134 12.3748C15.4721 12.4915 15.4011 12.5998 15.3004 12.6998L10.7004 17.2998C10.5171 17.4831 10.2837 17.5748 10.0004 17.5748C9.71705 17.5748 9.48372 17.4831 9.30039 17.2998C9.11706 17.1165 9.02539 16.8831 9.02539 16.5998C9.02539 16.3165 9.11706 16.0831 9.30039 15.8998L13.2004 11.9998Z" fill="#9FA4A9"/>
</svg>
