<svg width="19" height="19" viewBox="0 0 19 19" fill="none" xmlns="http://www.w3.org/2000/svg">
<g clip-path="url(#clip0_1535_18082)">
<path d="M8.70801 1.58334C7.65819 1.58334 6.65137 2.00038 5.90904 2.74271C5.16671 3.48504 4.74967 4.49186 4.74967 5.54168C4.74967 6.59149 5.16671 7.59831 5.90904 8.34064C6.65137 9.08297 7.65819 9.50001 8.70801 9.50001C9.75782 9.50001 10.7646 9.08297 11.507 8.34064C12.2493 7.59831 12.6663 6.59149 12.6663 5.54168C12.6663 4.49186 12.2493 3.48504 11.507 2.74271C10.7646 2.00038 9.75782 1.58334 8.70801 1.58334ZM8.70801 10.2917C6.81197 10.2917 5.08613 10.8411 3.81709 11.6153C3.18376 12.0017 2.64226 12.4577 2.25117 12.9533C1.86642 13.4393 1.58301 14.0228 1.58301 14.6458C1.58301 15.3148 1.90838 15.8421 2.37705 16.2181C2.82038 16.5743 3.40542 16.8103 4.02688 16.9749C5.27613 17.305 6.94338 17.4167 8.70801 17.4167L9.2503 17.4127C9.38288 17.4109 9.51289 17.3758 9.62838 17.3107C9.74387 17.2455 9.84115 17.1524 9.91129 17.0399C9.98142 16.9273 10.0222 16.799 10.0298 16.6666C10.0374 16.5342 10.0116 16.4021 9.95488 16.2822C9.65401 15.6471 9.4985 14.9528 9.49967 14.25C9.49967 13.2588 9.80288 12.3405 10.3206 11.5797C10.3976 11.4667 10.4439 11.3356 10.4552 11.1993C10.4664 11.063 10.4422 10.9261 10.3848 10.802C10.3273 10.6778 10.2388 10.5707 10.1276 10.491C10.0165 10.4112 9.88662 10.3617 9.75063 10.3471C9.41022 10.3107 9.06188 10.2917 8.70801 10.2917ZM14.4998 11.1237C14.3374 11.0696 14.1619 11.0696 13.9995 11.1237L11.6245 11.9154C11.4668 11.9679 11.3296 12.0687 11.2324 12.2036C11.1352 12.3384 11.083 12.5005 11.083 12.6667V13.9895C11.0829 14.8363 11.3951 15.6534 11.9597 16.2844C12.5244 16.9154 13.302 17.316 14.1436 17.4095C14.2148 17.4175 14.2853 17.4175 14.3558 17.4095C15.1974 17.316 15.9749 16.9154 16.5396 16.2844C17.1043 15.6534 17.4165 14.8363 17.4163 13.9895V12.6667C17.4164 12.5005 17.3641 12.3384 17.2669 12.2036C17.1697 12.0687 17.0325 11.9679 16.8748 11.9154L14.4998 11.1237Z" fill="#9FA4A9"/>
</g>
<defs>
<clipPath id="clip0_1535_18082">
<rect width="19" height="19" fill="white"/>
</clipPath>
</defs>
</svg>
