<svg width="40" height="40" viewBox="0 0 40 40" fill="none" xmlns="http://www.w3.org/2000/svg">
<path fill-rule="evenodd" clip-rule="evenodd" d="M22.892 2.90771H17.1689V13.169L9.76948 5.76958L5.72266 9.81641L13.1216 17.2154L2.86133 17.2154V22.9385H12.835L5.72295 30.0505L9.76977 34.0973L17.1689 26.6981V37.2462H22.892V26.9858L30.0036 34.0974L34.0504 30.0505L26.9384 22.9385H37.1998V17.2154L26.6517 17.2154L34.0507 9.81636L30.0039 5.76953L22.892 12.8814V2.90771Z" fill="#FFDC43"/>
<path d="M17.1689 2.90771V2.15771C16.7547 2.15771 16.4189 2.4935 16.4189 2.90771H17.1689ZM22.892 2.90771H23.642C23.642 2.4935 23.3062 2.15771 22.892 2.15771V2.90771ZM17.1689 13.169L16.6386 13.6994C16.8531 13.9139 17.1757 13.978 17.456 13.862C17.7362 13.7459 17.9189 13.4724 17.9189 13.169H17.1689ZM9.76948 5.76958L10.2998 5.23925C10.1592 5.0986 9.96839 5.01958 9.76948 5.01958C9.57057 5.01958 9.3798 5.0986 9.23915 5.23925L9.76948 5.76958ZM5.72266 9.81641L5.19233 9.28608C4.89943 9.57897 4.89943 10.0538 5.19233 10.3467L5.72266 9.81641ZM13.1216 17.2154V17.9654C13.425 17.9654 13.6985 17.7827 13.8146 17.5024C13.9306 17.2222 13.8665 16.8996 13.652 16.6851L13.1216 17.2154ZM2.86133 17.2154L2.86133 16.4654C2.44711 16.4654 2.11133 16.8012 2.11133 17.2154H2.86133ZM2.86133 22.9385H2.11133C2.11133 23.3527 2.44711 23.6885 2.86133 23.6885V22.9385ZM12.835 22.9385L13.3653 23.4688C13.5798 23.2543 13.644 22.9317 13.5279 22.6515C13.4118 22.3712 13.1383 22.1885 12.835 22.1885V22.9385ZM5.72295 30.0505L5.19262 29.5202C5.05196 29.6608 4.97295 29.8516 4.97295 30.0505C4.97295 30.2494 5.05196 30.4402 5.19262 30.5808L5.72295 30.0505ZM9.76977 34.0973L9.23944 34.6276C9.53234 34.9205 10.0072 34.9205 10.3001 34.6276L9.76977 34.0973ZM17.1689 26.6981H17.9189C17.9189 26.3948 17.7362 26.1213 17.456 26.0052C17.1757 25.8891 16.8531 25.9533 16.6386 26.1678L17.1689 26.6981ZM17.1689 37.2462H16.4189C16.4189 37.6604 16.7547 37.9962 17.1689 37.9962V37.2462ZM22.892 37.2462V37.9962C23.3062 37.9962 23.642 37.6604 23.642 37.2462H22.892ZM22.892 26.9858L23.4224 26.4554C23.2079 26.2409 22.8853 26.1768 22.605 26.2929C22.3248 26.4089 22.142 26.6824 22.142 26.9858H22.892ZM30.0036 34.0974L29.4733 34.6277C29.6139 34.7683 29.8047 34.8474 30.0036 34.8474C30.2025 34.8474 30.3933 34.7683 30.5339 34.6277L30.0036 34.0974ZM34.0504 30.0505L34.5808 30.5809C34.8737 30.288 34.8737 29.8131 34.5808 29.5202L34.0504 30.0505ZM26.9384 22.9385V22.1885C26.635 22.1885 26.3616 22.3712 26.2455 22.6515C26.1294 22.9317 26.1935 23.2543 26.408 23.4688L26.9384 22.9385ZM37.1998 22.9385V23.6885C37.614 23.6885 37.9498 23.3527 37.9498 22.9385H37.1998ZM37.1998 17.2154H37.9498C37.9498 17.0165 37.8708 16.8257 37.7301 16.6851C37.5895 16.5444 37.3987 16.4654 37.1998 16.4654V17.2154ZM26.6517 17.2154L26.1214 16.6851C25.9069 16.8996 25.8427 17.2222 25.9588 17.5024C26.0749 17.7827 26.3483 17.9654 26.6517 17.9654V17.2154ZM34.0507 9.81636L34.5811 10.3467C34.874 10.0538 34.874 9.57892 34.5811 9.28603L34.0507 9.81636ZM30.0039 5.76953L30.5342 5.2392C30.3936 5.09855 30.2028 5.01953 30.0039 5.01953C29.805 5.01953 29.6142 5.09855 29.4736 5.2392L30.0039 5.76953ZM22.892 12.8814H22.142C22.142 13.1848 22.3248 13.4582 22.605 13.5743C22.8853 13.6904 23.2079 13.6262 23.4224 13.4117L22.892 12.8814ZM17.1689 3.65771H22.892V2.15771H17.1689V3.65771ZM17.9189 13.169V2.90771H16.4189V13.169H17.9189ZM9.23915 6.29991L16.6386 13.6994L17.6993 12.6387L10.2998 5.23925L9.23915 6.29991ZM6.25299 10.3467L10.2998 6.29991L9.23915 5.23925L5.19233 9.28608L6.25299 10.3467ZM13.652 16.6851L6.25299 9.28608L5.19233 10.3467L12.5913 17.7457L13.652 16.6851ZM2.86133 17.9654L13.1216 17.9654V16.4654L2.86133 16.4654L2.86133 17.9654ZM3.61133 22.9385V17.2154H2.11133V22.9385H3.61133ZM12.835 22.1885H2.86133V23.6885H12.835V22.1885ZM6.25328 30.5808L13.3653 23.4688L12.3046 22.4081L5.19262 29.5202L6.25328 30.5808ZM10.3001 33.567L6.25328 29.5202L5.19262 30.5808L9.23944 34.6276L10.3001 33.567ZM16.6386 26.1678L9.23944 33.567L10.3001 34.6276L17.6993 27.2285L16.6386 26.1678ZM17.9189 37.2462V26.6981H16.4189V37.2462H17.9189ZM22.892 36.4962H17.1689V37.9962H22.892V36.4962ZM22.142 26.9858V37.2462H23.642V26.9858H22.142ZM30.5339 33.567L23.4224 26.4554L22.3617 27.5161L29.4733 34.6277L30.5339 33.567ZM33.5201 29.5202L29.4733 33.567L30.5339 34.6277L34.5808 30.5809L33.5201 29.5202ZM26.408 23.4688L33.5201 30.5809L34.5808 29.5202L27.4687 22.4081L26.408 23.4688ZM37.1998 22.1885H26.9384V23.6885H37.1998V22.1885ZM36.4498 17.2154V22.9385H37.9498V17.2154H36.4498ZM26.6517 17.9654L37.1998 17.9654V16.4654L26.6517 16.4654V17.9654ZM33.5204 9.28603L26.1214 16.6851L27.182 17.7457L34.5811 10.3467L33.5204 9.28603ZM29.4736 6.29986L33.5204 10.3467L34.5811 9.28603L30.5342 5.2392L29.4736 6.29986ZM23.4224 13.4117L30.5342 6.29986L29.4736 5.2392L22.3617 12.3511L23.4224 13.4117ZM22.142 2.90771V12.8814H23.642V2.90771H22.142Z" fill="#EBCA39"/>
</svg>
