<svg width="40" height="40" viewBox="0 0 40 40" fill="none" xmlns="http://www.w3.org/2000/svg">
<g clip-path="url(#clip0_549_6438)">
<g clip-path="url(#clip1_549_6438)">
<path fill-rule="evenodd" clip-rule="evenodd" d="M11.35 30.74C11.2967 31.1517 10.895 35.2883 10.8333 36C10.755 36.9 10.0867 37.6667 9.16667 37.6667C8.72464 37.6667 8.30072 37.4911 7.98816 37.1785C7.6756 36.866 7.5 36.442 7.5 36C7.5 35.0483 7.69333 33.2167 7.86833 31.7333C8.21 28.8467 8.61167 26.0217 9.51333 23.25C10.555 20.05 12.43 15.9517 15.775 12.6067C22.3317 6.05 31.8617 5.08167 32.1033 5.05667C32.4098 5.02595 32.7188 5.08032 32.9964 5.21381C33.274 5.34731 33.5093 5.55475 33.6767 5.81333C35.3283 8.29667 34.9217 11.9967 32.8983 14.1583C32.9203 14.3652 32.9033 14.5744 32.8483 14.775C32.5176 15.9896 32.0999 17.1788 31.5983 18.3333C30.68 20.4383 29.385 22.5667 27.56 24.3933C24.1433 27.81 19.6567 29.3783 16.1533 30.11C14.5697 30.4402 12.9652 30.6508 11.35 30.74Z" fill="#FF4561" stroke="#E12340" stroke-width="1.5"/>
</g>
</g>
<defs>
<clipPath id="clip0_549_6438">
<rect width="40" height="40" fill="white"/>
</clipPath>
<clipPath id="clip1_549_6438">
<rect width="40" height="40" fill="white" transform="translate(0 1)"/>
</clipPath>
</defs>
</svg>
