<svg width="30" height="30" viewBox="0 0 30 30" fill="none" xmlns="http://www.w3.org/2000/svg">
<g clip-path="url(#clip0_1411_16261)">
<path d="M26.2574 14.6195C25.9504 15.0159 25.9505 15.5697 26.2576 15.9661C29.1483 19.6971 26.0718 25.1288 21.0605 24.5532C20.5831 24.4983 20.1254 24.7599 19.9302 25.199C17.9827 29.5815 11.5028 29.5815 9.55523 25.199C9.36009 24.7599 8.90239 24.4983 8.425 24.5532C3.41415 25.1288 0.33776 19.6983 3.22807 15.9659C3.535 15.5695 3.53496 15.0157 3.22797 14.6194C0.337064 10.8872 3.41376 5.45654 8.425 6.03219C8.90239 6.08703 9.36009 5.8255 9.55523 5.38638C11.5028 1.0039 17.9827 1.0039 19.9302 5.38638C20.1254 5.8255 20.5831 6.08703 21.0605 6.03219C26.0713 5.45659 29.1477 10.887 26.2574 14.6195Z" fill="#B5FCFF" stroke="#C1C0FF" stroke-width="2.19899" stroke-linejoin="round"/>
<path d="M21.2309 14.4367C20.9331 14.8296 20.9332 15.3725 21.231 15.7652C22.7788 17.8063 21.1213 20.7509 18.4707 20.4398C17.9893 20.3833 17.5277 20.6488 17.3343 21.0933C16.2983 23.4752 12.8572 23.4752 11.8211 21.0933C11.6278 20.6488 11.1662 20.3833 10.6847 20.4398C8.03462 20.7509 6.37691 17.8071 7.92463 15.765C8.22232 15.3722 8.22228 14.8294 7.92453 14.4366C6.3766 12.3949 8.03426 9.45085 10.6847 9.76192C11.1662 9.81842 11.6278 9.55297 11.8211 9.10847C12.8572 6.72659 16.2983 6.72659 17.3343 9.10847C17.5277 9.55297 17.9893 9.81842 18.4707 9.76192C21.1209 9.4509 22.7786 12.3947 21.2309 14.4367Z" fill="#FFF3BF" stroke="#FCB8C4" stroke-width="2.19899" stroke-linejoin="round"/>
</g>
<defs>
<clipPath id="clip0_1411_16261">
<rect width="27.4873" height="28.5868" fill="white" transform="translate(1 1)"/>
</clipPath>
</defs>
</svg>
