<svg width="200" height="69" viewBox="0 0 200 69" fill="none" xmlns="http://www.w3.org/2000/svg">
<mask id="path-1-inside-1_1411_16294" fill="white">
<path fill-rule="evenodd" clip-rule="evenodd" d="M30 0C13.4315 0 0 13.4315 0 30C0 46.5685 13.4315 60 30 60H95.2117L98.9885 67.4762C99.3584 68.2083 100.404 68.2083 100.774 67.4762L104.55 60H170C186.569 60 200 46.5685 200 30C200 13.4315 186.569 0 170 0H30Z"/>
</mask>
<path fill-rule="evenodd" clip-rule="evenodd" d="M30 0C13.4315 0 0 13.4315 0 30C0 46.5685 13.4315 60 30 60H95.2117L98.9885 67.4762C99.3584 68.2083 100.404 68.2083 100.774 67.4762L104.55 60H170C186.569 60 200 46.5685 200 30C200 13.4315 186.569 0 170 0H30Z" fill="white"/>
<path d="M95.2117 60L96.9968 59.0982L96.4421 58H95.2117V60ZM98.9885 67.4762L97.2034 68.378L97.2034 68.378L98.9885 67.4762ZM100.774 67.4762L102.559 68.378L102.559 68.378L100.774 67.4762ZM104.55 60V58H103.32L102.765 59.0982L104.55 60ZM2 30C2 14.536 14.536 2 30 2V-2C12.3269 -2 -2 12.3269 -2 30H2ZM30 58C14.536 58 2 45.464 2 30H-2C-2 47.6731 12.3269 62 30 62V58ZM95.2117 58H30V62H95.2117V58ZM100.774 66.5744L96.9968 59.0982L93.4266 60.9018L97.2034 68.378L100.774 66.5744ZM98.9885 66.5744C99.3584 65.8422 100.404 65.8422 100.774 66.5744L97.2034 68.378C98.313 70.5744 101.449 70.5744 102.559 68.378L98.9885 66.5744ZM102.765 59.0982L98.9885 66.5744L102.559 68.378L106.336 60.9018L102.765 59.0982ZM170 58H104.55V62H170V58ZM198 30C198 45.464 185.464 58 170 58V62C187.673 62 202 47.6731 202 30H198ZM170 2C185.464 2 198 14.536 198 30H202C202 12.3269 187.673 -2 170 -2V2ZM30 2H170V-2H30V2Z" fill="#464C52" mask="url(#path-1-inside-1_1411_16294)"/>
</svg>
