<svg width="16" height="16" viewBox="0 0 16 16" fill="none" xmlns="http://www.w3.org/2000/svg">
<path d="M10.9702 4.97C11.111 4.83589 11.2985 4.76175 11.493 4.76322C11.6875 4.76469 11.8738 4.84166 12.0126 4.97789C12.1514 5.11412 12.2319 5.29895 12.237 5.49338C12.2422 5.68781 12.1716 5.87663 12.0402 6.02L8.05016 11.01C7.98155 11.0839 7.89874 11.1432 7.80669 11.1844C7.71464 11.2255 7.61523 11.2477 7.51441 11.2496C7.41359 11.2514 7.31343 11.233 7.21991 11.1952C7.1264 11.1575 7.04146 11.1013 6.97016 11.03L4.32416 8.384C4.25047 8.31534 4.19137 8.23254 4.15038 8.14054C4.10938 8.04854 4.08734 7.94923 4.08557 7.84852C4.08379 7.74782 4.10231 7.64779 4.14004 7.5544C4.17776 7.46102 4.2339 7.37618 4.30512 7.30496C4.37634 7.23374 4.46117 7.1776 4.55456 7.13988C4.64795 7.10216 4.74798 7.08363 4.84868 7.08541C4.94938 7.08719 5.0487 7.10923 5.1407 7.15022C5.2327 7.19121 5.3155 7.25031 5.38416 7.324L7.47816 9.417L10.9512 4.992C10.9574 4.9843 10.9631 4.97696 10.9702 4.97Z" fill="white"/>
</svg>
