<svg width="24" height="24" viewBox="0 0 24 24" fill="none" xmlns="http://www.w3.org/2000/svg">
<g clip-path="url(#clip0_1502_13239)">
<path fill-rule="evenodd" clip-rule="evenodd" d="M16.4999 3.206C17.5105 3.78967 18.2852 4.70835 18.6899 5.80298C19.0946 6.89762 19.1038 8.0993 18.7159 9.2C19.5357 9.90248 20.1062 10.8513 20.3422 11.9048C20.5782 12.9583 20.467 14.0598 20.0253 15.0449C19.5836 16.03 18.835 16.8457 17.8914 17.3702C16.9477 17.8947 15.8598 18.0999 14.7899 17.955C14.8339 18.325 14.8399 18.709 14.8099 19.082C14.7349 19.967 14.4339 20.979 13.7069 21.706C13.527 21.8853 13.2855 21.9895 13.0315 21.9972C12.7776 22.005 12.5302 21.9158 12.3397 21.7478C12.1491 21.5797 12.0296 21.3454 12.0055 21.0925C11.9814 20.8396 12.0545 20.587 12.2099 20.386L12.2929 20.292C12.5659 20.019 12.7649 19.532 12.8159 18.916C12.8259 18.804 12.8289 18.694 12.8279 18.588C11.9577 19.1856 10.9206 19.4925 9.86533 19.4646C8.81001 19.4367 7.79061 19.0755 6.95315 18.4328C6.11569 17.79 5.50315 16.8987 5.20331 15.8865C4.90346 14.8743 4.93168 13.7932 5.28393 12.798C4.39837 12.0384 3.80621 10.9931 3.6099 9.84303C3.41359 8.69295 3.62548 7.51043 4.20891 6.50007C4.79235 5.48971 5.71062 4.71508 6.80483 4.31022C7.89905 3.90535 9.10037 3.89573 10.2009 4.283C10.9603 3.39646 12.0057 2.80339 13.1563 2.60652C14.3069 2.40964 15.49 2.62136 16.5009 3.205L16.4999 3.206ZM11.9999 9.5C11.8029 9.5 11.6079 9.5388 11.4259 9.61418C11.2439 9.68956 11.0786 9.80005 10.9393 9.93934C10.8 10.0786 10.6895 10.244 10.6141 10.426C10.5387 10.608 10.4999 10.803 10.4999 11C10.4999 11.197 10.5387 11.392 10.6141 11.574C10.6895 11.756 10.8 11.9214 10.9393 12.0607C11.0786 12.2 11.2439 12.3104 11.4259 12.3858C11.6079 12.4612 11.8029 12.5 11.9999 12.5C12.3978 12.5 12.7793 12.342 13.0606 12.0607C13.3419 11.7794 13.4999 11.3978 13.4999 11C13.4999 10.6022 13.3419 10.2206 13.0606 9.93934C12.7793 9.65804 12.3978 9.5 11.9999 9.5Z" fill="#9FA4A9"/>
</g>
<defs>
<clipPath id="clip0_1502_13239">
<rect width="24" height="24" fill="white"/>
</clipPath>
</defs>
</svg>
