<svg width="38" height="38" viewBox="0 0 38 38" fill="none" xmlns="http://www.w3.org/2000/svg">
<g clip-path="url(#clip0_5187_38372)">
<path fill-rule="evenodd" clip-rule="evenodd" d="M23.6127 9.15821C24.8053 9.84699 25.7195 10.9311 26.197 12.2228C26.6746 13.5146 26.6854 14.9326 26.2277 16.2315C27.1951 17.0605 27.8683 18.1802 28.1468 19.4234C28.4253 20.6666 28.2941 21.9665 27.7728 23.129C27.2516 24.2914 26.3682 25.254 25.2546 25.873C24.1411 26.4919 22.8572 26.734 21.5947 26.563C21.6467 26.9997 21.6538 27.4528 21.6184 27.893C21.5298 28.9373 21.1746 30.1316 20.3167 30.9895C20.1044 31.2011 19.8194 31.324 19.5197 31.3331C19.2201 31.3423 18.9281 31.237 18.7033 31.0387C18.4784 30.8405 18.3374 30.564 18.309 30.2655C18.2805 29.9671 18.3668 29.669 18.5502 29.4318L18.6481 29.3209C18.9703 28.9987 19.2051 28.424 19.2653 27.6971C19.2771 27.5649 19.2806 27.4351 19.2795 27.31C18.2525 28.0153 17.0287 28.3774 15.7834 28.3445C14.538 28.3116 13.3351 27.8854 12.3468 27.1269C11.3586 26.3684 10.6357 25.3166 10.2819 24.1221C9.92804 22.9276 9.96134 21.6518 10.377 20.4774C9.332 19.581 8.63321 18.3475 8.40155 16.9904C8.16989 15.6332 8.41994 14.2377 9.10843 13.0454C9.79692 11.8531 10.8805 10.939 12.1718 10.4613C13.463 9.9835 14.8807 9.97214 16.1794 10.4291C17.0755 9.38296 18.3092 8.68311 19.6669 8.45078C21.0247 8.21846 22.4209 8.4683 23.6138 9.15703L23.6127 9.15821ZM18.3024 16.5856C18.0699 16.5856 17.8397 16.6313 17.625 16.7203C17.4102 16.8093 17.2151 16.9396 17.0507 17.104C16.8863 17.2684 16.756 17.4635 16.667 17.6783C16.578 17.893 16.5323 18.1232 16.5323 18.3557C16.5323 18.5881 16.578 18.8183 16.667 19.0331C16.756 19.2478 16.8863 19.4429 17.0507 19.6073C17.2151 19.7717 17.4102 19.9021 17.625 19.991C17.8397 20.08 18.0699 20.1258 18.3024 20.1258C18.7718 20.1258 19.2221 19.9393 19.554 19.6073C19.886 19.2754 20.0725 18.8251 20.0725 18.3557C20.0725 17.8862 19.886 17.436 19.554 17.104C19.2221 16.7721 18.7718 16.5856 18.3024 16.5856Z" fill="#9FA4A9"/>
<path d="M29.8728 11.1414L29.8728 11.1413C29.7636 10.787 29.4669 10.5 29.0669 10.5C28.6669 10.5 28.3702 10.7871 28.2612 11.1414C28.2612 11.1414 28.2611 11.1414 28.2611 11.1414L27.4279 13.8476L25.3778 14.9145L25.3777 14.9145C25.0081 15.107 24.8867 15.4967 24.8867 15.7844C24.8867 16.0721 25.0081 16.4618 25.3777 16.6543L25.3778 16.6543L27.4279 17.7212L28.2611 20.4273C28.2611 20.4273 28.2612 20.4274 28.2612 20.4274C28.3703 20.7818 28.667 21.0688 29.067 21.0688C29.467 21.0688 29.7637 20.7818 29.8728 20.4273L30.7061 17.7212L32.7561 16.6543L32.7562 16.6543C33.1258 16.4619 33.2473 16.0722 33.2473 15.7844C33.2473 15.4966 33.1258 15.1069 32.7562 14.9145L32.7561 14.9145L30.7061 13.8476L29.8728 11.1414Z" fill="#F76D6D" stroke="#FBF9F1"/>
</g>
<defs>
<clipPath id="clip0_5187_38372">
<rect width="38" height="38" fill="white"/>
</clipPath>
</defs>
</svg>
