<svg width="66" height="61" viewBox="0 0 66 61" fill="none" xmlns="http://www.w3.org/2000/svg">
<g clip-path="url(#clip0_1502_16408)">
<g clip-path="url(#clip1_1502_16408)">
<path d="M11.0054 2.05495C15.0386 -0.269728 20.2027 1.11165 22.5313 5.13811L23.2082 6.30865C24.0949 7.84186 23.568 9.80486 22.0322 10.6901L12.9827 15.906C11.4469 16.7912 9.48064 16.2652 8.59395 14.732L7.91701 13.5615C5.58842 9.53502 6.97213 4.37963 11.0054 2.05495Z" fill="#C3C3C3"/>
<path d="M52.9325 15.9077L43.883 10.6918C42.3472 9.80656 41.8203 7.84356 42.707 6.31035L43.3839 5.13981C45.7125 1.11335 50.8766 -0.268027 54.9098 2.05665C58.9431 4.38133 60.3268 9.53672 57.9982 13.5632L57.3212 14.7337C56.4346 16.2669 54.4683 16.7929 52.9325 15.9077Z" fill="#C3C3C3"/>
<path d="M65.0998 34.2896C65.0998 51.9903 50.7252 60.1099 32.9947 60.1099C15.2642 60.1099 0.889648 51.9903 0.889648 34.2896C0.889648 16.5889 15.2626 2.23846 32.9947 2.23846C50.7269 2.23846 65.0998 16.5889 65.0998 34.2896Z" fill="#C3C3C3"/>
<path d="M65.0078 34.2896L64.9437 34.5162L64.9502 34.7429L64.9963 34.9712L64.9881 35.1994L65.1164 35.431L64.9453 35.6527L65.1822 35.8925L65.0802 36.1158L65.0868 36.3441L64.8795 36.5576L64.8927 36.7875L65.1115 37.0355L65.0999 37.2638L64.8121 37.4642L64.8812 37.7007L64.9897 37.9437L64.7907 38.1474L64.7496 38.3724L64.6986 38.5941L64.7627 38.8339L64.8104 39.0736L64.687 39.2838L64.562 39.4924L64.5949 39.7305L64.687 39.9818L64.4798 40.1723L64.4008 40.3875L64.3169 40.6026L64.3926 40.8539L64.2133 41.0444L64.312 41.3039V41.5404L64.1228 41.7259L63.9978 41.9263L64.0389 42.1759L63.8119 42.3434L63.8793 42.6029L63.8908 42.8476L63.6984 43.0234L63.7954 43.2993L63.5947 43.4701L63.5306 43.6901L63.3693 43.8724L63.3331 44.1024L63.371 44.3635L63.0782 44.4883L63.1851 44.7823L63.0699 44.9826L63.014 45.2076L62.8331 45.3768L62.8051 45.6166L62.6636 45.8021L62.3461 45.8974L62.3083 46.1339L62.1471 46.3047L62.2507 46.62L61.9941 46.7382L61.8838 46.937L61.925 47.226L61.7506 47.387L61.6996 47.6251L61.4183 47.7187L61.2127 47.855L61.1765 48.103L60.9955 48.2557L61.0761 48.5891L60.808 48.6778L60.7027 48.8831L60.4905 49.0096L60.3638 49.1984L60.3753 49.494L60.1022 49.5712L60.0891 49.8537L59.9328 50.0212L59.7716 50.1854L59.6811 50.4088L59.4064 50.4728L59.26 50.6469L59.1251 50.8325L58.8602 50.8966L58.8372 51.1889L58.5526 51.2299L58.4753 51.473L58.2483 51.5666L58.0443 51.6816L58.0755 52.0462L57.786 52.0692L57.5721 52.1726L57.4076 52.3286L57.3747 52.6358L57.1395 52.7129L57.0605 52.9741L56.7989 53.0168L56.5686 53.094L56.4518 53.3124L56.2067 53.3699L56.0521 53.5407L55.8975 53.7147L55.7198 53.8593L55.4434 53.8658L55.3135 54.0744L55.1605 54.2534L54.9334 54.324L54.7936 54.526L54.5913 54.6328L54.2968 54.595L54.1636 54.8085L54.0566 55.0696L53.7474 55.0007L53.5927 55.1846L53.4661 55.4195L53.1584 55.3423L53.0285 55.5738L52.762 55.5623L52.5843 55.7118L52.4181 55.8809L52.2026 55.9614L52.0299 56.1207L51.8605 56.2932L51.6285 56.3408L51.4393 56.4722L51.2107 56.5231L50.9277 56.4557L50.7287 56.5674L50.574 56.776L50.324 56.7727L50.1891 57.0355L49.9802 57.1274L49.7877 57.2572L49.5064 57.1718L49.3238 57.3278L49.0869 57.3475L48.8862 57.4625L48.72 57.6694L48.4223 57.52L48.2084 57.5955L47.9847 57.6448L47.7791 57.7433L47.6047 57.9404L47.3727 57.965L47.1358 57.9716L46.9483 58.1325L46.7706 58.3296L46.5255 58.3099L46.3265 58.4396H46.0879L45.8955 58.5957L45.5977 58.3756L45.4118 58.5628L45.2012 58.6597L44.9495 58.5957L44.7768 58.8387L44.5333 58.8059L44.3458 59.0062L44.1007 58.9603L43.8934 59.0769L43.6335 58.957L43.395 58.9323L43.2189 59.1984L42.9574 59.0637L42.7534 59.2L42.505 59.1179L42.2977 59.2427L42.0937 59.3938L41.8667 59.4201L41.6331 59.4135L41.4028 59.4119L41.184 59.4874L40.9767 59.6451L40.7497 59.6664L40.5013 59.5466L40.299 59.7535L40.0588 59.6779L39.8268 59.6697L39.5866 59.5893L39.3826 59.7978L39.1671 59.921L38.9122 59.7009L38.7016 59.8684L38.4565 59.7289L38.2328 59.765L38.0041 59.7699L37.7754 59.7633L37.555 59.8734L37.3214 59.8028L37.1125 60.0507L36.8673 59.8274L36.6584 60.1197L36.4199 59.9851L36.1896 59.9637L35.9576 59.8734L35.7372 60.0376L35.5069 60.0097L35.2782 60.008L35.0528 60.0573L34.8242 60.0491L34.6004 60.2314H34.3701L34.1382 60.0442L33.9128 60.21L33.6841 60.2478L33.4522 60.077L33.2235 60.0639L32.9949 60.1361L32.7662 60.0031L32.5392 60.031L32.3072 60.2445L32.0786 60.2412L31.8499 60.2199L31.6262 60.0261L31.3991 60.0245L31.1721 59.9801L30.9385 60.1148L30.7066 60.2166L30.4861 59.9916L30.2525 60.1132L30.0272 60.0491L29.7952 60.0934L29.5715 60.0278L29.3362 60.1164L29.1257 59.8405L28.8921 59.9194L28.6519 60.0688L28.4249 60.0392L28.1929 60.0622L27.9889 59.7732L27.7389 59.9965L27.5168 59.9128L27.3112 59.6862L27.0611 59.8717L26.8522 59.6829L26.612 59.7699L26.3949 59.6615L26.1514 59.7584L25.9326 59.6697L25.7105 59.6057L25.4802 59.6073L25.2367 59.6878L25.0229 59.5712L24.8156 59.4152L24.5738 59.4776L24.3385 59.5006L24.1477 59.2608L23.9174 59.2575L23.6871 59.2444L23.4436 59.3068L23.2199 59.2542L23.0027 59.1721L22.802 59.0161L22.5915 58.9143L22.3694 58.8617L22.1243 58.9126L21.9088 58.8322L21.6406 58.9783L21.4235 58.9028L21.2639 58.5957L21.0352 58.5694L20.7885 58.6121L20.5763 58.5234L20.3147 58.6137L20.1008 58.5267L19.8755 58.4873L19.6863 58.3148L19.4428 58.3362L19.2355 58.2278L19.0316 58.1161L18.8029 58.0816L18.5874 58.0061L18.4147 57.8057L18.1465 57.8862L17.9113 57.8648L17.7632 57.5988L17.5082 57.6316L17.3174 57.492L17.1331 57.3344L16.8699 57.3853L16.615 57.4083L16.4833 57.1242L16.1774 57.267L15.9668 57.1784L15.799 56.9879L15.5884 56.8992L15.3614 56.8483L15.1624 56.7317L14.9567 56.6315L14.7659 56.5001L14.6113 56.2948L14.4352 56.1371L14.1276 56.2455L13.9532 56.0846L13.7114 56.055L13.5305 55.9072L13.4137 55.6461L13.0748 55.7873L12.9925 55.4671L12.754 55.4244L12.5813 55.27L12.3148 55.2716L12.17 55.0696L11.9347 55.0171L11.8607 54.7067L11.5416 54.7839L11.3409 54.6706L11.2274 54.4291L11.0382 54.3027L10.8753 54.1401L10.6499 54.0646L10.3769 54.0547L10.293 53.7804L10.0775 53.6901L9.99192 53.4273L9.72871 53.3961L9.50663 53.3091L9.44905 53.0168L9.14636 53.0283L9.05423 52.7836L8.74167 52.8L8.68245 52.5175L8.47682 52.4075L8.35837 52.1989L8.2317 52.0002L7.96356 51.9526L7.72502 51.8721L7.7316 51.5387L7.52432 51.4254L7.35982 51.2694L7.29402 51.0164L6.99297 50.9885L6.83504 50.8243L6.69192 50.6453L6.45503 50.55L6.35304 50.3349L6.34481 50.0426L6.0487 49.9949L6.07173 49.6813L5.95658 49.4842L5.56176 49.5039L5.57986 49.2017L5.51406 48.9685L5.33639 48.8174L5.0485 48.7435L4.92348 48.553L4.80339 48.3576L4.63395 48.195L4.64053 47.9174L4.47602 47.7532L4.47273 47.4871L4.30164 47.3245L4.18649 47.1291L4.03679 46.9534L3.94137 46.7465L3.69461 46.6216L3.85089 46.2784L3.61565 46.147L3.36067 46.0222L3.44292 45.7249L3.29486 45.5443L3.234 45.3209L3.19616 45.0894L3.07936 44.8939L2.83918 44.7494L2.82437 44.5096L2.83918 44.2567L2.69441 44.0712L2.61545 43.8576L2.51017 43.654L2.45752 43.4323L2.25189 43.2631L2.19431 43.0414L2.20254 42.8L2.0808 42.5997L2.03639 42.3747L2.0841 42.1234L1.92288 41.9345L1.96565 41.6865L1.70409 41.5223L1.74686 41.276L1.79456 41.0296L1.70244 40.8194L1.69257 40.5895L1.65638 40.3661L1.60538 40.1444L1.47871 39.9391L1.54287 39.6961L1.4672 39.4793L1.31914 39.2756L1.24511 39.0572L1.13818 38.8437L1.33395 38.5826L1.2484 38.3674L1.25663 38.1375L0.978612 37.9437L1.16779 37.6908L0.991772 37.4822L0.916099 37.2605L1.12009 37.0125L1.15299 36.7826L0.975321 36.5675L0.792719 36.3507L0.917744 36.1142L0.781204 35.8941L0.881553 35.6609L0.800945 35.4343L0.967096 35.2011L0.786139 34.9777L0.754883 34.7478L1.05264 34.5179L0.842071 34.2896L0.94571 34.063L1.00329 33.8363L0.953936 33.6097L0.881553 33.3814L0.756528 33.1498L0.891423 32.9265L0.80917 32.6966L0.991772 32.4781L0.904584 32.2449L0.898003 32.0167L0.827266 31.7835L1.09377 31.5782L0.985192 31.34L1.00987 31.115L1.12338 30.8983L1.10528 30.6683L0.980257 30.4253L1.29775 30.2364L1.26156 30.0032L1.15299 29.7585L1.25498 29.545L1.12173 29.2937L1.24511 29.0835L1.22373 28.8487L1.36685 28.6434L1.31914 28.4036L1.52642 28.2114L1.59716 27.9947L1.63993 27.7713L1.49845 27.5102L1.69421 27.3197L1.63993 27.075L1.88833 26.9009L1.67941 26.6168L1.88833 26.4345L1.86366 26.1947L1.9163 25.973L2.02816 25.7677L2.06764 25.5443L2.31276 25.3785L2.37034 25.16L2.14332 24.8546L2.20418 24.6345L2.51346 24.4949L2.54142 24.265L2.66316 24.0679L2.70593 23.8429L2.77502 23.6278L2.64671 23.3404L3.00204 23.2287L3.06949 23.0136L3.09581 22.7804L3.03659 22.5143L3.04481 22.2729L3.41824 22.1793L3.37547 21.9165L3.43305 21.6948L3.50214 21.478L3.76206 21.3433L3.62881 21.0362L3.82293 20.8753L4.07133 20.7406L4.09601 20.5025L4.12727 20.266L4.08285 19.9917L4.40693 19.8981L4.54676 19.7158L4.57966 19.4793L4.57308 19.2182L4.69975 19.0293L4.94322 18.9045L4.94815 18.6483L4.93664 18.3806L5.15708 18.2443L5.19656 18.0045L5.49102 17.9142L5.58315 17.7056L5.54531 17.4166L5.76575 17.2869L5.98125 17.1538L5.94342 16.8599L6.01086 16.6332L6.19018 16.4788L6.432 16.3672L6.45174 16.106L6.5488 15.8975L6.71824 15.7382L6.88275 15.5756L7.07687 15.436L7.2315 15.2701L7.25618 15.0041L7.43714 14.8562L7.57368 14.6756L7.75628 14.5311L7.83031 14.2995L7.90598 14.0696L8.14616 13.9842L8.00797 13.7888L7.94546 13.5457L7.86156 13.3338L7.75957 13.1302L7.49965 13.0037L7.56381 12.7229L7.30224 12.5849L7.33679 12.3255L7.1986 12.1317L7.19367 11.8919L7.06206 11.6932L7.10812 11.4435L6.93375 11.2514L6.92717 11.0182L6.99955 10.7751L7.03739 10.5403L6.82188 10.3399L6.96665 10.0985L6.94033 9.87515L6.9321 9.6518L6.94033 9.4268L6.82682 9.20016L6.67547 8.96531L6.78734 8.74196L6.7824 8.51204L6.92388 8.29854L6.82517 8.05384L7.05877 7.86333L7.09167 7.63998L6.965 7.37885L7.11799 7.18177L7.10812 6.942L7.29566 6.76299L7.14925 6.47066L7.4322 6.33106L7.47497 6.10442L7.6658 5.94019L7.59671 5.65936L7.80234 5.50663L7.76121 5.22579L7.85169 5.01065L8.184 4.94496L8.12148 4.63456L8.20538 4.41121L8.3666 4.24205L8.72029 4.22563L8.87163 4.05976L8.85683 3.74936L9.07562 3.63933L9.24013 3.48331L9.33225 3.25175L9.60862 3.21233L9.783 3.07109L9.81754 2.75906L10.089 2.73278L10.316 2.65723L10.4706 2.48643L10.6203 2.3025L10.8013 2.15962L10.9855 2.02166L11.206 1.94283L11.4215 1.85415L11.5991 1.69156H11.8525L11.9874 1.41401L12.2144 1.34832L12.4365 1.27442L12.6536 1.18245L12.907 1.21037L13.1044 1.04614L13.361 1.11347L13.5913 1.08391L13.8134 1.01329L14.0355 0.92789L14.2658 0.88519L14.5043 0.929532L14.733 0.873694L14.9682 0.922963L15.2002 0.944313L15.4305 0.786652L15.6542 0.92789L15.8813 0.94924L16.0918 1.12332L16.3172 1.11511L16.5771 0.916393L16.7893 1.03464L16.9966 1.15453L17.1973 1.2892L17.426 1.30069L17.6513 1.33846L17.8488 1.45835L18.0774 1.48463L18.3554 1.39595L18.4574 1.7474L18.7716 1.59302L18.8654 1.92477L19.0891 1.9806L19.3902 1.89849L19.5366 2.10378L19.7011 2.26965L19.9643 2.28279L20.1946 2.35341L20.3525 2.52749L20.4545 2.77055L20.7161 2.81161L20.8773 2.97584L21.0517 3.12529L21.1208 3.38149L21.3692 3.45703L21.5123 3.63604L21.736 3.74608L21.7476 4.03512L21.9351 4.08604L22.1654 4.26669L22.3513 4.1156L22.5865 4.10574L22.7839 3.98585L22.9468 3.75593L23.1426 3.62126L23.4337 3.79371L23.6098 3.59663L23.817 3.50138L24.0325 3.42747L24.2842 3.48167L24.4504 3.23697L24.6972 3.27802L24.9209 3.23861L25.1496 3.21726L25.393 3.26324L25.6167 3.2304L25.7911 2.97912L26.0543 3.11708L26.2814 3.10065L26.4672 2.89044L26.6827 2.81161L26.9015 2.7492L27.1499 2.84281L27.3803 2.84446L27.5662 2.59975L27.8195 2.73606L28.0218 2.57019L28.2669 2.67858L28.4857 2.60632L28.6831 2.37804L28.9135 2.38954L29.1372 2.35341L29.3889 2.5472L29.5962 2.36655L29.8347 2.47494L30.0403 2.24173L30.2854 2.4503L30.4927 2.18261L30.7263 2.25815L30.9517 2.2483L31.1886 2.42403L31.409 2.291L31.636 2.32056L31.8614 2.28607L32.0851 2.15962L32.3138 2.24502L32.5408 2.22038L32.7678 2.31399L32.9949 2.17768L33.2235 2.29593L33.4522 2.39118L33.6841 2.26637L33.9177 2.1087L34.1464 2.1941L34.3701 2.35176L34.6004 2.32877L34.8357 2.23352L35.0709 2.16618L35.2848 2.40925L35.5283 2.24337L35.7553 2.28936L35.9807 2.36326L36.2093 2.39282L36.4347 2.44209L36.665 2.4503L36.8904 2.49957L37.1092 2.60796L37.3707 2.38625L37.5928 2.45851L37.8067 2.58661L38.0436 2.56362L38.2344 2.81982L38.4663 2.82146L38.6983 2.82475L38.9089 2.94628L39.1737 2.78533L39.4139 2.75249L39.6097 2.94628L39.8679 2.83789L40.0785 2.95449L40.3022 3.00869L40.5441 2.98898L40.7481 3.12857L40.9619 3.2189L41.1462 3.4209L41.3682 3.47346L41.6446 3.33879L41.8354 3.5063L42.046 3.60484L42.3224 3.48167L42.5 3.68531L42.6909 3.84462L42.9607 3.75429L43.1729 3.84626L43.4048 3.88239L43.6335 3.92181L43.8572 3.98093L44.0119 4.12052L44.1994 4.02856L44.252 3.774L44.3771 3.58021L44.6929 3.56543L44.785 3.34043L45.0417 3.28295L45.0795 2.99062L45.3625 2.97584V2.61453L45.6372 2.59647L45.8 2.43388L45.9711 2.28115L46.2409 2.28279L46.4564 2.2056L46.542 1.89849L46.7805 1.86072L46.9532 1.69813L47.1687 1.6193L47.3645 1.49284L47.5718 1.39595L47.8449 1.47642L48.0094 1.25635L48.2775 1.34832L48.4848 1.25635L48.7019 1.1923L48.9454 1.25471L49.156 1.16931L49.3468 0.944313L49.5689 0.87862L49.8074 0.945955L50.0246 0.803075L50.2615 0.919678L50.4885 0.954166L50.7155 1.01165L50.9491 0.824425L51.1794 0.913109L51.4081 0.960736L51.6433 0.941028L51.8605 1.0642L52.0842 1.11675L52.3244 1.08062L52.5432 1.16602L52.757 1.25799L52.9742 1.33354L53.216 1.32697L53.4874 1.2465L53.6174 1.57003L53.9152 1.44357L54.101 1.60123L54.3593 1.59959L54.4909 1.86072L54.6752 2.00195L54.9055 2.06436L55.1522 2.09885L55.2904 2.30742L55.5059 2.39611L55.6787 2.54884L55.8399 2.71307L56.0932 2.76234L56.1162 3.08916L56.2956 3.22547L56.6246 3.20905L56.6427 3.51451L56.9766 3.51287L56.9075 3.88239L57.1362 3.98421L57.3336 4.11724L57.4734 4.29789L57.6856 4.42928L57.582 4.7758L57.9028 4.83985L57.9916 5.05335L58.1956 5.20444L58.194 5.46557L58.2433 5.69549L58.5213 5.81866L58.5674 6.05187L58.6858 6.25387L58.6562 6.51007L58.8405 6.69073L58.7385 6.96335L58.7138 7.20477L58.8405 7.40677L59.0478 7.59399L59.1399 7.81242L59.1119 8.05219L58.9507 8.30511L58.9935 8.52682L58.9721 8.7551L59.2567 8.96531L58.9984 9.20345L59.1563 9.42844L58.9902 9.6518L58.9885 9.87679L59.2517 10.1248L59.0593 10.3366L58.8882 10.5436L58.8569 10.7653L58.926 11.0067L58.8586 11.2235L58.8224 11.4485L58.6842 11.6455L58.6891 11.882L58.7911 12.1579L58.6743 12.3616L58.4572 12.5225L58.5542 12.8116L58.2828 12.9413L58.217 13.163L58.1199 13.3683L58.1347 13.6409L58.0179 13.8167L57.809 13.9333L57.8699 14.155L58.1117 14.2519L58.1742 14.4933L58.3667 14.6313L58.3733 14.9137L58.7599 14.9055L58.8964 15.0878L58.9918 15.303L59.0494 15.5427L59.1711 15.7349L59.4212 15.8383L59.3833 16.1422L59.6087 16.2621L59.7189 16.4641L59.8407 16.6562L59.9312 16.8697L60.0134 17.0865L60.3128 17.167L60.2454 17.4774L60.4197 17.6367L60.5102 17.8485L60.6862 18.0078L60.8195 18.1934L60.9577 18.3773L60.9083 18.6664L61.1008 18.8191L61.0893 19.0835L61.2373 19.2609L61.4709 19.3956L61.4134 19.6813L61.6947 19.793L61.8115 19.9884L61.8032 20.2463L62.0039 20.4023L62.1536 20.5846L62.1076 20.8572L62.1438 21.0904L62.231 21.299L62.3362 21.501L62.4843 21.6849L62.4827 21.9313L62.685 22.0922L62.8775 22.2614L62.9383 22.4815L62.8232 22.7705L62.9498 22.9659L63.1111 23.1482L63.1736 23.3667L63.1621 23.613L63.2937 23.8068L63.3035 24.0433L63.4022 24.2502L63.6112 24.421L63.6951 24.6329L63.5717 24.9104L63.7938 25.0796V25.3177L63.932 25.5131L64.0668 25.7135L63.927 25.9861L64.1113 26.1733L64.1162 26.4066L64.2494 26.6086L64.2593 26.8401L64.261 27.0733L64.2577 27.3065L64.4699 27.4938L64.4107 27.7385L64.4567 27.9618L64.3564 28.2131L64.4386 28.4282L64.6854 28.6138L64.6591 28.8503L64.5554 29.0966L64.6657 29.3101L64.6344 29.5434L64.8334 29.7454L64.664 29.9966L64.7611 30.2134L64.8302 30.4335L64.9634 30.647L64.794 30.8933L65.0983 31.092L64.9453 31.3351L64.9947 31.5601L65.1674 31.7752L64.9897 32.0167L65.0095 32.2433L65.0572 32.4683L65.1559 32.69L64.9453 32.9281L65.169 33.1466L65.123 33.3765L65.2019 33.6031L65.1065 33.833L64.97 34.0613L65.0078 34.2896Z" stroke="#AFAFAF" stroke-width="1.31605" stroke-miterlimit="10"/>
<path d="M17.2995 27.4281L17.1596 27.6547L17.0576 27.8584L17.0511 28.0981L17.0362 28.3724L16.8043 28.4972L16.5822 28.5941L16.4457 28.8224L16.1594 28.7337L15.9818 28.9899L15.735 28.8914L15.4833 29.0112L15.3073 28.7386L15.0391 28.7912L14.8746 28.6089L14.7628 28.3987L14.442 28.3658L14.4321 28.0916L14.2972 27.8945L14.1557 27.6777L14.1936 27.4281L14.1426 27.1768L14.1837 26.9255L14.2824 26.6907L14.5966 26.6036L14.7726 26.469L14.8944 26.2752L15.0112 26.0124L15.2382 25.9024L15.4998 25.9467L15.735 25.8564L15.9571 26.0288L16.1989 26.0042L16.3535 26.2144L16.5394 26.3228L16.8355 26.3294L16.9737 26.5297L17.0856 26.7416L17.028 27.0093L17.1498 27.2047L17.2995 27.4281Z" fill="#959595"/>
<path d="M51.7814 27.4281V27.6695L51.5988 27.8649L51.7107 28.1704L51.408 28.264L51.1958 28.3691L51.102 28.5925L50.9474 28.7863L50.6842 28.7501L50.4769 28.8257L50.2548 29.0523L50.0245 28.8799L49.7728 28.9111L49.6462 28.6204L49.3928 28.6138L49.1559 28.5251L48.9552 28.3724L48.7874 28.1753L48.9338 27.8567L48.7266 27.6695L48.8582 27.4281L48.7825 27.1965L48.9947 27.0191L49.026 26.804L49.0276 26.538L49.2332 26.4099L49.457 26.3327L49.5853 26.1159L49.832 26.129L50.0048 25.8515L50.2548 25.9237L50.4736 26.0485L50.7204 25.9976L50.9967 25.9746L51.1843 26.152L51.3291 26.3557L51.3455 26.6381L51.5396 26.7744L51.5923 26.9945L51.7584 27.1916L51.7814 27.4281Z" fill="#959595"/>
<path d="M38.4684 31.611L38.5572 31.8459L38.5112 32.0791L38.2414 32.1891L38.3154 32.5274L38.0127 32.5603L37.965 32.8543L37.6195 32.7688L37.4484 32.9068L37.2296 32.9659L37.1293 33.2648L36.9516 33.4291L36.7476 33.544L36.4746 33.4619L36.2706 33.567L36.0797 33.7214L35.8034 33.5719L35.6438 33.8725L35.3855 33.7575L35.1931 33.9595L34.9233 33.7345L34.7012 33.7641L34.5136 34.0712L34.2669 33.9185L34.0432 33.9332L33.826 34.081L33.5941 34.0022L33.3687 34.0449L33.1417 34.127L32.913 33.8741L32.6876 33.9053L32.4573 34.081L32.2303 34.0646L32 34.0925L31.7795 33.9907L31.5608 33.9004L31.337 33.8725L31.1034 33.9135L30.8797 33.8774L30.656 33.8331L30.4339 33.7887L30.2529 33.567L29.9716 33.7641L29.8055 33.5112L29.5554 33.5621L29.3087 33.5785L29.103 33.4701L28.9336 33.2862L28.7757 33.0957L28.5273 33.0924L28.3101 33.0152L28.2048 32.7656L27.9433 32.7459L27.7327 32.6391L27.7212 32.3451L27.453 32.2712L27.5205 31.9904L27.1553 31.8689L27.2178 31.611L27.2754 31.3795L27.351 31.1594L27.5534 31.0149L27.5139 30.6995L27.8117 30.6618L28.0403 30.5928L28.1801 30.4154L28.2904 30.1724L28.4976 30.0722L28.7526 30.0755L28.8694 29.7815L29.1557 29.8817L29.3959 29.8866L29.5192 29.545L29.794 29.6665L30.0391 29.7158L30.2398 29.5992L30.4372 29.453L30.6675 29.458L30.8797 29.3545L31.0919 29.2363L31.3403 29.3906L31.569 29.4169L31.7779 29.228L32.0066 29.256L32.2287 29.1574L32.459 29.233L32.6876 29.3512L32.913 29.1098L33.14 29.1656L33.3621 29.343L33.5941 29.1886L33.8244 29.1443L34.0448 29.2543L34.2817 29.1673L34.4857 29.3742L34.6995 29.4662L34.9644 29.2379L35.1503 29.4875L35.4168 29.3085L35.5747 29.6468L35.8626 29.4268L36.0107 29.7421L36.2936 29.5894L36.4614 29.7996L36.6868 29.8406L36.9549 29.7897L37.0816 30.0623L37.3645 30.0098L37.46 30.3005L37.6607 30.3974L37.84 30.5271L38.0982 30.5764L38.2298 30.7702L38.3911 30.941L38.3072 31.2333L38.3911 31.414L38.4684 31.611Z" fill="#959595"/>
<path d="M32.567 34.0137L32.7579 34.2453L32.6098 34.4785L32.6986 34.71L32.7924 34.9432L32.7908 35.1765L32.4914 35.408L32.7052 35.6412L32.7694 35.8728L32.7036 36.106L32.6394 36.3376L32.623 36.5708L32.4799 36.804L32.5868 37.0372L32.4766 37.2704L32.4897 37.5036L32.7858 37.7368L32.544 37.97" stroke="#959595" stroke-width="1.48056" stroke-miterlimit="10"/>
<path d="M50.3526 43.6869C50.295 43.6869 50.2374 43.6852 50.1799 43.6819C48.2897 43.5719 47.0987 41.588 47.7962 39.8307L50.351 33.3929L52.9057 39.8307C53.6032 41.588 52.4122 43.5719 50.522 43.6819C50.4645 43.6852 50.4085 43.6869 50.3493 43.6869H50.3526Z" fill="#DBDBDB" stroke="#DBDBDB" stroke-width="1.31605" stroke-linecap="round" stroke-linejoin="round"/>
<path d="M12.7627 22.0069L12.9782 21.9543L13.1707 21.8081L13.3928 21.7868L13.6083 21.7392L13.8221 21.6817L14.031 21.6078L14.3206 21.7934L14.4423 21.4435L14.6924 21.4977L14.8931 21.3959L15.0691 21.2284L15.3767 21.4173L15.5988 21.3713L15.7518 21.1479L15.9031 20.9295L16.1614 20.9673L16.3835 20.9213L16.5957 20.8457L16.7026 20.5485L16.9708 20.5928L17.2142 20.5748L17.3837 20.4138" stroke="#AFAFAF" stroke-width="1.31605" stroke-miterlimit="10"/>
<path d="M52.4528 22.4503L52.234 22.4026L52.0053 22.3961L51.8244 22.2039L51.5875 22.2269L51.3638 22.1974L51.1483 22.1415L50.9048 22.1711L50.7025 22.0709L50.4919 21.9921L50.2797 21.9182L50.0642 21.8541L49.9474 21.5306L49.6332 21.7277L49.4719 21.5257L49.2531 21.4682L49.0064 21.4715L48.9176 21.1216L48.73 20.9968L48.4652 21.0395L48.2003 21.0707L48.0588 20.849L47.8828 20.7045" stroke="#AFAFAF" stroke-width="1.31605" stroke-miterlimit="10"/>
</g>
</g>
<defs>
<clipPath id="clip0_1502_16408">
<rect width="66" height="61" fill="white"/>
</clipPath>
<clipPath id="clip1_1502_16408">
<rect width="66" height="61" fill="white"/>
</clipPath>
</defs>
</svg>
