<svg width="20" height="22" viewBox="0 0 20 22" fill="none" xmlns="http://www.w3.org/2000/svg">
<path d="M18.5899 16.3654C18.2857 17.0991 17.9256 17.7744 17.5083 18.3953C16.9396 19.2418 16.474 19.8277 16.1151 20.153C15.5588 20.6871 14.9627 20.9606 14.3245 20.9762C13.8663 20.9762 13.3137 20.8401 12.6704 20.564C12.0251 20.2891 11.432 20.153 10.8898 20.153C10.321 20.153 9.71108 20.2891 9.05866 20.564C8.40525 20.8401 7.87887 20.9839 7.47641 20.9982C6.86435 21.0254 6.25427 20.7441 5.64531 20.153C5.25664 19.7992 4.77049 19.1925 4.18811 18.3331C3.56325 17.4153 3.04954 16.3511 2.64708 15.1378C2.21607 13.8273 2 12.5583 2 11.3297C2 9.92233 2.29132 8.70852 2.87482 7.69134C3.3334 6.87431 3.94348 6.22981 4.70704 5.75668C5.4706 5.28355 6.29562 5.04244 7.1841 5.02702C7.67025 5.02702 8.30777 5.18399 9.10001 5.4925C9.89002 5.80205 10.3973 5.95903 10.6197 5.95903C10.786 5.95903 11.3495 5.77548 12.3047 5.40954C13.2081 5.07018 13.9706 4.92967 14.5952 4.98502C16.2877 5.12761 17.5593 5.82409 18.4049 7.07886C16.8912 8.03628 16.1424 9.37725 16.1573 11.0975C16.171 12.4375 16.6366 13.5525 17.5518 14.4378C17.9666 14.8488 18.4297 15.1663 18.9451 15.3919C18.8333 15.7302 18.7153 16.0543 18.5899 16.3654ZM14.7082 0.42012C14.7082 1.47036 14.3406 2.45096 13.608 3.3586C12.7238 4.43761 11.6544 5.06111 10.4948 4.96272C10.48 4.83673 10.4714 4.70412 10.4714 4.56477C10.4714 3.55654 10.8919 2.47754 11.6385 1.59531C12.0113 1.14862 12.4854 0.777199 13.0604 0.480913C13.6341 0.189048 14.1767 0.0276404 14.6871 0C14.702 0.140401 14.7082 0.28081 14.7082 0.420106V0.42012Z" fill="#1B1D1F"/>
</svg>
