<svg width="12" height="12" viewBox="0 0 12 12" fill="none" xmlns="http://www.w3.org/2000/svg">
<g clip-path="url(#clip0_1426_19588)">
<path d="M3 1.5C2.73478 1.5 2.48043 1.60536 2.29289 1.79289C2.10536 1.98043 2 2.23478 2 2.5V10.5C2 10.6326 2.05268 10.7598 2.14645 10.8536C2.24021 10.9473 2.36739 11 2.5 11C2.63261 11 2.75979 10.9473 2.85355 10.8536C2.94732 10.7598 3 10.6326 3 10.5V8H9.902C10.0035 8.00004 10.103 7.972 10.1895 7.91899C10.276 7.86599 10.3462 7.79008 10.3923 7.69966C10.4383 7.60925 10.4585 7.50785 10.4505 7.4067C10.4425 7.30554 10.4067 7.20856 10.347 7.1265L8.618 4.75L10.346 2.3735C10.4057 2.29147 10.4415 2.19454 10.4495 2.09343C10.4575 1.99232 10.4374 1.89096 10.3914 1.80056C10.3454 1.71016 10.2753 1.63424 10.1888 1.5812C10.1024 1.52816 10.0029 1.50006 9.9015 1.5H3Z" fill="#9FA4A9"/>
</g>
<defs>
<clipPath id="clip0_1426_19588">
<rect width="12" height="12" fill="white"/>
</clipPath>
</defs>
</svg>
