<svg width="22" height="22" viewBox="0 0 22 22" fill="none" xmlns="http://www.w3.org/2000/svg">
<g clip-path="url(#clip0_1452_33207)">
<path d="M10.9997 1.83337C16.0624 1.83337 20.1663 5.93729 20.1663 11C20.1663 16.0628 16.0624 20.1667 10.9997 20.1667C5.93692 20.1667 1.83301 16.0628 1.83301 11C1.83301 5.93729 5.93692 1.83337 10.9997 1.83337ZM10.9997 3.66671C9.05475 3.66671 7.18949 4.43932 5.81422 5.81459C4.43896 7.18986 3.66634 9.05512 3.66634 11C3.66634 12.945 4.43896 14.8102 5.81422 16.1855C7.18949 17.5608 9.05475 18.3334 10.9997 18.3334C12.9446 18.3334 14.8099 17.5608 16.1851 16.1855C17.5604 14.8102 18.333 12.945 18.333 11C18.333 9.05512 17.5604 7.18986 16.1851 5.81459C14.8099 4.43932 12.9446 3.66671 10.9997 3.66671ZM10.9997 5.50004C11.2242 5.50007 11.4409 5.5825 11.6087 5.7317C11.7765 5.88089 11.8837 6.08648 11.9099 6.30946L11.9163 6.41671V10.6205L14.3978 13.102C14.5622 13.2669 14.6576 13.4883 14.6647 13.7211C14.6718 13.9538 14.5901 14.1806 14.436 14.3553C14.282 14.53 14.0673 14.6395 13.8354 14.6616C13.6036 14.6837 13.372 14.6167 13.1878 14.4742L13.1016 14.3981L10.3516 11.6481C10.2091 11.5055 10.1176 11.32 10.0913 11.1201L10.083 11V6.41671C10.083 6.17359 10.1796 5.94043 10.3515 5.76853C10.5234 5.59662 10.7566 5.50004 10.9997 5.50004Z" fill="#9FA4A9"/>
</g>
<defs>
<clipPath id="clip0_1452_33207">
<rect width="22" height="22" fill="white"/>
</clipPath>
</defs>
</svg>
