<svg width="24" height="24" viewBox="0 0 24 24" fill="none" xmlns="http://www.w3.org/2000/svg">
<path fill-rule="evenodd" clip-rule="evenodd" d="M17.2491 10.5C17.2491 11.3864 17.0745 12.2641 16.7353 13.0831C16.3961 13.902 15.8989 14.6461 15.2721 15.2729C14.6453 15.8997 13.9012 16.3969 13.0822 16.7362C12.2633 17.0754 11.3855 17.25 10.4991 17.25C9.61269 17.25 8.73495 17.0754 7.916 16.7362C7.09705 16.3969 6.35294 15.8997 5.72614 15.2729C5.09935 14.6461 4.60215 13.902 4.26293 13.0831C3.92371 12.2641 3.74911 11.3864 3.74911 10.5C3.74911 8.70976 4.46027 6.99287 5.72614 5.727C6.99201 4.46113 8.7089 3.74997 10.4991 3.74997C12.2893 3.74997 14.0062 4.46113 15.2721 5.727C16.538 6.99287 17.2491 8.70976 17.2491 10.5ZM16.0191 17.61C14.2107 19.0139 11.9352 19.6759 9.65581 19.4612C7.37646 19.2464 5.26463 18.1711 3.75024 16.4541C2.23585 14.737 1.43274 12.5074 1.50442 10.2191C1.57609 7.93077 2.51716 5.75578 4.13604 4.1369C5.75493 2.51802 7.92992 1.57695 10.2182 1.50527C12.5066 1.43359 14.7362 2.2367 16.4532 3.75109C18.1702 5.26549 19.2456 7.37732 19.4603 9.65667C19.6751 11.936 19.0131 14.2115 17.6091 16.02L21.7941 20.205C21.9046 20.308 21.9933 20.4322 22.0548 20.5702C22.1163 20.7082 22.1493 20.8571 22.152 21.0082C22.1547 21.1592 22.1269 21.3093 22.0703 21.4494C22.0137 21.5894 21.9295 21.7167 21.8227 21.8235C21.7158 21.9304 21.5886 22.0146 21.4485 22.0712C21.3084 22.1277 21.1584 22.1555 21.0073 22.1529C20.8563 22.1502 20.7073 22.1171 20.5693 22.0556C20.4313 21.9942 20.3071 21.9055 20.2041 21.795L16.0191 17.61Z" fill="#CACDD2"/>
</svg>
