<svg width="60" height="18" viewBox="0 0 60 18" fill="none" xmlns="http://www.w3.org/2000/svg">
<path d="M7.64503 9.26999C6.72508 8.57437 5.59969 8.11123 4.83246 8.11123C4.2434 8.11123 3.78343 8.52311 3.78343 9.01188C3.78343 9.39813 4.03977 9.60499 4.72883 9.78438C5.64878 10.0681 6.26329 10.2731 6.85235 10.5825C8.20863 11.2525 8.97586 12.4369 8.97586 13.8538C8.97586 16.1969 6.95598 17.9744 4.29612 17.9744C2.78712 17.9744 1.32902 17.4069 0 16.3525L1.40719 13.9325C2.25078 14.6794 3.32527 15.0912 4.3743 15.0912C5.11608 15.0912 5.52515 14.7819 5.52515 14.2675C5.52515 13.7531 5.21789 13.4693 4.6052 13.3156C3.73616 13.1087 3.4289 13.0318 2.91802 12.8012C1.12721 12.0799 0.258167 10.9212 0.258167 9.35054C0.258167 7.05865 2.32896 5.28116 4.98881 5.28116C6.37055 5.28116 7.54685 5.69304 9.00313 6.69803L7.64685 9.27365L7.64503 9.26999Z" fill="#030303"/>
<path d="M21.4319 7.51993C22.3773 8.62743 22.8137 9.93996 22.8137 11.5893C22.8137 15.0912 19.8975 17.9506 16.3177 17.9506C12.7379 17.9506 10.1289 15.2724 10.1289 11.7705C10.1289 8.26864 13.0197 5.17862 16.574 5.17862C18.4157 5.17862 20.2065 6.02801 21.4337 7.52176L21.4319 7.51993ZM13.6051 11.6644C13.6051 13.3119 14.8832 14.7288 16.3413 14.7288C17.9012 14.7288 19.2829 13.2094 19.2829 11.5362C19.2829 9.86307 18.1066 8.47183 16.5722 8.47183C14.9105 8.47183 13.6051 9.8887 13.6051 11.6644Z" fill="#030303"/>
<path d="M25.0134 6.92691V6.3338C25.0134 3.99066 25.3206 2.57379 26.0624 1.57064C26.7787 0.591277 27.9296 0 29.1823 0C30.2313 0 31.1258 0.334996 32.533 1.23564L31.3858 4.10599C30.9367 3.66116 30.2822 3.42501 29.6677 3.42501C28.9768 3.42501 28.5423 4.04375 28.5423 5.04691V6.92691H31.5858L31.5348 9.73319L28.5423 9.75882V15.4245C28.5423 15.527 28.5677 15.862 28.5932 16.3764C28.5932 16.942 28.6441 17.277 28.695 17.612H24.8334L24.8589 17.4326L24.9098 16.3507C24.9607 15.5782 24.9607 15.1151 24.9861 15.0108V9.75699L23.4771 9.73136L23.4517 6.97634L25.0116 6.92508L25.0134 6.92691Z" fill="#030303"/>
<path d="M40.2835 9.91803H37.3418L37.2654 12.2319V12.7719C37.2654 13.4419 37.3164 13.7238 37.5218 14.0075C37.7781 14.3938 38.2636 14.6519 38.6726 14.6519C39.0563 14.6519 39.2981 14.5274 39.9362 14.2181L40.9489 16.6088C39.8744 17.4326 38.8254 17.8188 37.7527 17.8188C35.6037 17.8188 33.8656 16.1969 33.8656 14.2126L33.8911 9.83931L32.2803 9.78806L32.3057 6.93052L33.9165 6.9049L33.942 5.15486C33.9165 3.91556 33.8911 3.21994 33.8656 2.62683L37.4454 2.65246C37.4454 2.85931 37.4454 2.98746 37.3945 3.5531C37.3691 3.96498 37.3691 4.19747 37.3691 4.50501L37.3182 6.95432L40.3107 7.00558L40.2853 9.9162L40.2835 9.91803Z" fill="#030303"/>
<path d="M46.3446 2.47864C46.3446 3.68865 45.2956 4.77053 44.1193 4.77053C42.943 4.77053 41.9194 3.68865 41.9194 2.42738C41.9194 1.16611 42.943 0.135498 44.0939 0.135498C45.2447 0.135498 46.3446 1.243 46.3446 2.47864ZM46.1156 5.66568L45.8083 17.6139H42.2285L42.1521 5.66568H46.1156Z" fill="#030303"/>
<path d="M59.2351 16.2994C57.957 17.33 55.8843 18 53.9917 18C50.3847 18 47.6484 15.245 47.6484 11.6131C47.6484 7.98124 50.4865 5.20059 54.1953 5.20059C57.6479 5.20059 60.0005 7.64625 60.0005 11.2012C60.0005 11.7943 59.9496 12.3344 59.7969 12.9275L51.3319 12.9787C51.8173 14.2144 53.0718 14.9612 54.6826 14.9612C55.7316 14.9612 56.6261 14.6775 57.3424 14.1375L59.2351 16.3012V16.2994ZM56.5752 10.275C56.1916 9.01369 55.2189 8.26681 53.8899 8.26681C52.6354 8.26681 51.8173 8.88555 51.3064 10.275H56.5752Z" fill="#030303"/>
</svg>
