<svg width="40" height="40" viewBox="0 0 40 40" fill="none" xmlns="http://www.w3.org/2000/svg">
<path fill-rule="evenodd" clip-rule="evenodd" d="M14.5846 35.0462C16.7833 35.0462 18.789 34.2196 20.3078 32.8602C21.8265 34.2196 23.8322 35.0462 26.0309 35.0462C30.7721 35.0462 34.6155 31.2027 34.6155 26.4616C34.6155 23.8976 33.4915 21.5961 31.7092 20.0231C33.4915 18.4501 34.6155 16.1486 34.6155 13.5846C34.6155 8.84346 30.7721 5 26.0309 5C23.8322 5 21.8265 5.82659 20.3078 7.18597C18.789 5.82659 16.7833 5 14.5846 5C9.84346 5 6 8.84346 6 13.5846C6 16.1486 7.12407 18.4501 8.90629 20.0231C7.12407 21.5961 6 23.8976 6 26.4616C6 31.2027 9.84346 35.0462 14.5846 35.0462Z" fill="#FFAAB2"/>
<path d="M20.3078 32.8602L20.808 32.3014C20.5232 32.0465 20.0923 32.0465 19.8076 32.3014L20.3078 32.8602ZM31.7092 20.0231L31.2129 19.4608C31.0516 19.6032 30.9592 19.8079 30.9592 20.0231C30.9592 20.2382 31.0516 20.443 31.2129 20.5854L31.7092 20.0231ZM20.3078 7.18597L19.8076 7.74482C20.0923 7.99969 20.5232 7.99969 20.808 7.74482L20.3078 7.18597ZM8.90629 20.0231L9.40259 20.5854C9.56389 20.443 9.65629 20.2382 9.65629 20.0231C9.65629 19.8079 9.56389 19.6032 9.40259 19.4608L8.90629 20.0231ZM19.8076 32.3014C18.421 33.5424 16.5917 34.2962 14.5846 34.2962V35.7962C16.9749 35.7962 19.157 34.8968 20.808 33.4191L19.8076 32.3014ZM26.0309 34.2962C24.0238 34.2962 22.1945 33.5424 20.808 32.3014L19.8076 33.4191C21.4585 34.8968 23.6406 35.7962 26.0309 35.7962V34.2962ZM33.8655 26.4616C33.8655 30.7885 30.3578 34.2962 26.0309 34.2962V35.7962C31.1863 35.7962 35.3655 31.6169 35.3655 26.4616H33.8655ZM31.2129 20.5854C32.8407 22.0221 33.8655 24.1217 33.8655 26.4616H35.3655C35.3655 23.6735 34.1422 21.1701 32.2055 19.4608L31.2129 20.5854ZM33.8655 13.5846C33.8655 15.9245 32.8407 18.0241 31.2129 19.4608L32.2055 20.5854C34.1422 18.8761 35.3655 16.3727 35.3655 13.5846H33.8655ZM26.0309 5.75C30.3578 5.75 33.8655 9.25768 33.8655 13.5846H35.3655C35.3655 8.42925 31.1863 4.25 26.0309 4.25V5.75ZM20.808 7.74482C22.1945 6.50375 24.0238 5.75 26.0309 5.75V4.25C23.6406 4.25 21.4585 5.14943 19.8076 6.62713L20.808 7.74482ZM14.5846 5.75C16.5917 5.75 18.421 6.50375 19.8076 7.74482L20.808 6.62713C19.157 5.14943 16.9749 4.25 14.5846 4.25V5.75ZM6.75 13.5846C6.75 9.25768 10.2577 5.75 14.5846 5.75V4.25C9.42925 4.25 5.25 8.42925 5.25 13.5846H6.75ZM9.40259 19.4608C7.77483 18.0241 6.75 15.9245 6.75 13.5846H5.25C5.25 16.3727 6.47331 18.8761 8.40999 20.5854L9.40259 19.4608ZM6.75 26.4616C6.75 24.1217 7.77483 22.0221 9.40259 20.5854L8.40999 19.4608C6.47331 21.1701 5.25 23.6735 5.25 26.4616H6.75ZM14.5846 34.2962C10.2577 34.2962 6.75 30.7885 6.75 26.4616H5.25C5.25 31.6169 9.42925 35.7962 14.5846 35.7962V34.2962Z" fill="#E899A1"/>
</svg>
