<svg width="24" height="24" viewBox="0 0 24 24" fill="none" xmlns="http://www.w3.org/2000/svg">
<g clip-path="url(#clip0_1452_31803)">
<path d="M8.20663 11.757C8.29961 11.8498 8.37337 11.9601 8.42369 12.0815C8.47401 12.2029 8.49992 12.3331 8.49992 12.4645C8.49992 12.5959 8.47401 12.726 8.42369 12.8474C8.37337 12.9688 8.29961 13.0791 8.20663 13.172L6.37963 15H15.9996C16.2648 15 16.5192 15.1053 16.7067 15.2929C16.8943 15.4804 16.9996 15.7348 16.9996 16C16.9996 16.2652 16.8943 16.5195 16.7067 16.7071C16.5192 16.8946 16.2648 17 15.9996 17H6.37963L8.20763 18.828C8.30054 18.9208 8.37425 19.0311 8.42456 19.1524C8.47487 19.2737 8.50079 19.4038 8.50083 19.5351C8.50088 19.6665 8.47505 19.7965 8.42483 19.9179C8.37461 20.0393 8.30097 20.1496 8.20813 20.2425C8.11529 20.3354 8.00505 20.4091 7.88372 20.4594C7.76239 20.5097 7.63233 20.5356 7.50098 20.5357C7.36964 20.5357 7.23956 20.5099 7.1182 20.4597C6.99683 20.4095 6.88654 20.3358 6.79363 20.243L3.25763 16.707C3.07016 16.5194 2.96484 16.2651 2.96484 16C2.96484 15.7348 3.07016 15.4805 3.25763 15.293L6.79363 11.757C6.98116 11.5695 7.23547 11.4642 7.50063 11.4642C7.76579 11.4642 8.0201 11.5695 8.20763 11.757M15.7936 3.75697C15.9658 3.5848 16.1949 3.48136 16.4379 3.46608C16.681 3.4508 16.9212 3.52472 17.1136 3.67397L17.2076 3.75697L20.7436 7.29297C20.9158 7.46517 21.0192 7.69427 21.0345 7.93729C21.0498 8.18032 20.9759 8.42057 20.8266 8.61297L20.7436 8.70697L17.2076 12.242C17.0277 12.4213 16.7862 12.5254 16.5322 12.5332C16.2783 12.541 16.0309 12.4518 15.8404 12.2837C15.6498 12.1157 15.5303 11.8814 15.5062 11.6285C15.4821 11.3756 15.5552 11.123 15.7106 10.922L15.7936 10.828L17.6196 8.99997H7.99963C7.74475 8.99969 7.4996 8.90209 7.31426 8.72712C7.12893 8.55216 7.0174 8.31302 7.00246 8.05858C6.98752 7.80414 7.0703 7.55359 7.2339 7.35814C7.39749 7.16269 7.62953 7.03708 7.88263 7.00697L7.99963 6.99997H17.6206L15.7926 5.16997C15.6052 4.98245 15.4998 4.72814 15.4998 4.46297C15.4998 4.19781 15.6052 3.9435 15.7926 3.75597" fill="#CACDD2"/>
</g>
<defs>
<clipPath id="clip0_1452_31803">
<rect width="24" height="24" fill="white"/>
</clipPath>
</defs>
</svg>
