<svg width="40" height="40" viewBox="0 0 40 40" fill="none" xmlns="http://www.w3.org/2000/svg">
<path fill-rule="evenodd" clip-rule="evenodd" d="M31.3968 24.6392C30.9992 18.9665 28.9374 8.58881 23.3208 4.82576C22.8437 4.50613 22.2384 4.84604 22.1754 5.41681C21.8269 8.57419 20.8611 13.2244 16.9471 13.2244C15.1645 13.2244 13.8446 12.7286 13.3477 9.80684C13.2065 8.9766 12.0547 8.70834 11.698 9.4712C8.74931 15.7762 8.56552 20.5342 8.5542 24.671C8.55407 24.7189 8.55807 24.7658 8.56587 24.8114C8.56165 24.9259 8.55956 25.0408 8.55963 25.1562C8.56303 30.7632 13.6728 35.305 19.9725 35.3006C26.2723 35.2962 31.3765 30.7473 31.3731 25.1403C31.373 25.0623 31.372 24.9844 31.37 24.9067C31.3936 24.8224 31.4034 24.7324 31.3968 24.6392Z" fill="#FF8000"/>
<path d="M23.3208 4.82576L22.9033 5.44884L22.9033 5.44884L23.3208 4.82576ZM31.3968 24.6392L30.6486 24.6916L31.3968 24.6392ZM22.1754 5.41681L21.4299 5.33453L22.1754 5.41681ZM13.3477 9.80684L12.6083 9.93258V9.93258L13.3477 9.80684ZM11.698 9.4712L11.0186 9.15347L11.0186 9.15347L11.698 9.4712ZM8.5542 24.671L9.3042 24.6731L8.5542 24.671ZM8.56587 24.8114L9.31536 24.8391L9.31822 24.7615L9.30514 24.685L8.56587 24.8114ZM8.55963 25.1562L9.30963 25.1558L8.55963 25.1562ZM19.9725 35.3006L19.972 34.5506L19.9725 35.3006ZM31.3731 25.1403L32.1231 25.1399V25.1399L31.3731 25.1403ZM31.37 24.9067L30.6477 24.7048L30.6173 24.8134L30.6202 24.9262L31.37 24.9067ZM22.9033 5.44884C25.5019 7.18984 27.3537 10.5289 28.6049 14.2551C29.8474 17.9554 30.4532 21.903 30.6486 24.6916L32.145 24.5867C31.9428 21.7027 31.3188 17.6251 30.0269 13.7776C28.7437 9.95604 26.7563 6.22473 23.7382 4.20268L22.9033 5.44884ZM22.9209 5.4991C22.9249 5.46295 22.9425 5.45087 22.945 5.44958C22.9454 5.44936 22.9384 5.45305 22.9244 5.45258C22.9176 5.45235 22.9112 5.45114 22.9062 5.44951C22.901 5.44785 22.9001 5.44668 22.9033 5.44884L23.7382 4.20268C22.7092 3.51324 21.5432 4.3082 21.4299 5.33453L22.9209 5.4991ZM16.9471 13.9744C19.2861 13.9744 20.7189 12.5499 21.5699 10.8385C22.4063 9.15625 22.745 7.09267 22.9209 5.4991L21.4299 5.33453C21.2573 6.89834 20.9388 8.73853 20.2267 10.1707C19.5291 11.5737 18.5221 12.4744 16.9471 12.4744V13.9744ZM12.6083 9.93258C12.8713 11.4789 13.3772 12.545 14.1984 13.1982C15.0166 13.8491 16.0064 13.9744 16.9471 13.9744V12.4744C16.1053 12.4744 15.5438 12.3518 15.1322 12.0243C14.7235 11.6992 14.321 11.0565 14.0871 9.6811L12.6083 9.93258ZM12.3773 9.78892C12.385 9.77246 12.39 9.76863 12.3882 9.77041C12.3877 9.77092 12.3867 9.77174 12.3855 9.77256C12.3849 9.77294 12.3844 9.77323 12.384 9.77344C12.3836 9.77365 12.3834 9.77374 12.3834 9.77374C12.3834 9.77374 12.3837 9.77362 12.3842 9.77343C12.3848 9.77324 12.3857 9.77297 12.387 9.77267C12.3895 9.77206 12.3934 9.77132 12.3988 9.77089C12.41 9.77001 12.426 9.77053 12.4456 9.77476C12.487 9.78369 12.5276 9.80531 12.5571 9.83404C12.5832 9.85948 12.6011 9.89021 12.6083 9.93258L14.0871 9.6811C13.9582 8.9232 13.3693 8.43943 12.7617 8.30845C12.1386 8.17412 11.373 8.39557 11.0186 9.15347L12.3773 9.78892ZM9.3042 24.6731C9.31539 20.5822 9.49575 15.9505 12.3773 9.78892L11.0186 9.15347C8.00287 15.6019 7.81565 20.4862 7.80421 24.669L9.3042 24.6731ZM9.30514 24.685C9.30457 24.6817 9.30419 24.6777 9.3042 24.6731L7.80421 24.669C7.80396 24.7601 7.81158 24.85 7.82661 24.9378L9.30514 24.685ZM9.30963 25.1558C9.30956 25.0497 9.31149 24.9442 9.31536 24.8391L7.81638 24.7838C7.81181 24.9076 7.80955 25.0319 7.80963 25.1567L9.30963 25.1558ZM19.972 34.5506C14.0019 34.5548 9.31273 30.2687 9.30963 25.1558L7.80963 25.1567C7.81333 31.2577 13.3436 36.0552 19.973 36.0506L19.972 34.5506ZM30.6231 25.1408C30.6262 30.2538 25.9421 34.5464 19.972 34.5506L19.973 36.0506C26.6025 36.046 32.1268 31.2408 32.1231 25.1399L30.6231 25.1408ZM30.6202 24.9262C30.6221 24.9975 30.6231 25.0691 30.6231 25.1408L32.1231 25.1399C32.123 25.0555 32.1219 24.9713 32.1197 24.8873L30.6202 24.9262ZM30.6486 24.6916C30.6491 24.6985 30.6483 24.7025 30.6477 24.7048L32.0923 25.1087C32.1388 24.9423 32.1576 24.7663 32.145 24.5867L30.6486 24.6916Z" fill="#EC7701"/>
</svg>
