<svg width="20" height="20" viewBox="0 0 20 20" fill="none" xmlns="http://www.w3.org/2000/svg">
<circle cx="10" cy="10" r="9.5" fill="#F76D6D" stroke="#F76D6D"/>
<path d="M12.9702 6.97C13.111 6.83589 13.2985 6.76175 13.493 6.76322C13.6875 6.76469 13.8738 6.84166 14.0126 6.97789C14.1514 7.11412 14.2319 7.29895 14.237 7.49338C14.2422 7.68781 14.1716 7.87663 14.0402 8.02L10.0502 13.01C9.98155 13.0839 9.89874 13.1432 9.80669 13.1844C9.71464 13.2255 9.61523 13.2477 9.51441 13.2496C9.41359 13.2514 9.31343 13.233 9.21991 13.1952C9.1264 13.1575 9.04146 13.1013 8.97016 13.03L6.32416 10.384C6.25047 10.3153 6.19137 10.2325 6.15038 10.1405C6.10938 10.0485 6.08734 9.94923 6.08557 9.84852C6.08379 9.74782 6.10231 9.64779 6.14004 9.5544C6.17776 9.46102 6.2339 9.37618 6.30512 9.30496C6.37634 9.23374 6.46117 9.1776 6.55456 9.13988C6.64795 9.10216 6.74798 9.08363 6.84868 9.08541C6.94938 9.08719 7.0487 9.10923 7.1407 9.15022C7.2327 9.19121 7.3155 9.25031 7.38416 9.324L9.47816 11.417L12.9512 6.992C12.9574 6.9843 12.9631 6.97696 12.9702 6.97Z" fill="white"/>
</svg>
