<svg width="40" height="40" viewBox="0 0 40 40" fill="none" xmlns="http://www.w3.org/2000/svg">
<mask id="path-1-outside-1_549_6442" maskUnits="userSpaceOnUse" x="2" y="1.99997" width="36" height="36" fill="black">
<rect fill="white" x="2" y="1.99997" width="36" height="36"/>
<path fill-rule="evenodd" clip-rule="evenodd" d="M21.2015 4.97829L24.6052 15.1895L24.6255 15.1968L34.7466 18.8771C36.0023 19.3338 36.0023 21.1097 34.7466 21.5664L24.6255 25.2467L24.6052 25.254L21.2015 35.4651C20.7667 36.7695 18.9216 36.7695 18.4868 35.4651L15.0831 25.2539L15.0628 25.2467L4.94181 21.5664C3.68606 21.1097 3.68606 19.3338 4.94181 18.8771L15.0628 15.1968L15.083 15.1896L18.4868 4.97829C18.9216 3.67386 20.7667 3.67386 21.2015 4.97829Z"/>
</mask>
<path fill-rule="evenodd" clip-rule="evenodd" d="M21.2015 4.97829L24.6052 15.1895L24.6255 15.1968L34.7466 18.8771C36.0023 19.3338 36.0023 21.1097 34.7466 21.5664L24.6255 25.2467L24.6052 25.254L21.2015 35.4651C20.7667 36.7695 18.9216 36.7695 18.4868 35.4651L15.0831 25.2539L15.0628 25.2467L4.94181 21.5664C3.68606 21.1097 3.68606 19.3338 4.94181 18.8771L15.0628 15.1968L15.083 15.1896L18.4868 4.97829C18.9216 3.67386 20.7667 3.67386 21.2015 4.97829Z" fill="#FFCC00"/>
<path d="M24.6052 15.1895L23.1822 15.6639L23.4135 16.3578L24.1028 16.6029L24.6052 15.1895ZM21.2015 4.97829L19.7784 5.45263V5.45263L21.2015 4.97829ZM24.6255 15.1968L25.1382 13.787L25.128 13.7834L24.6255 15.1968ZM34.7466 18.8771L35.2592 17.4674L34.7466 18.8771ZM34.7466 21.5664L35.2592 22.9761L35.2592 22.9761L34.7466 21.5664ZM24.6255 25.2467L25.1279 26.6602L25.1382 26.6564L24.6255 25.2467ZM24.6052 25.254L24.1028 23.8406L23.4135 24.0856L23.1821 24.7796L24.6052 25.254ZM21.2015 35.4651L19.7784 34.9907V34.9907L21.2015 35.4651ZM18.4868 35.4651L19.9098 34.9907V34.9907L18.4868 35.4651ZM15.0831 25.2539L16.5061 24.7796L16.2748 24.0856L15.5855 23.8406L15.0831 25.2539ZM15.0628 25.2467L14.5502 26.6565L14.5604 26.6601L15.0628 25.2467ZM4.94181 21.5664L5.45443 20.1567H5.45443L4.94181 21.5664ZM4.94181 18.8771L5.45443 20.2868H5.45443L4.94181 18.8771ZM15.0628 15.1968L14.5603 13.7834L14.5502 13.7871L15.0628 15.1968ZM15.083 15.1896L15.5855 16.6029L16.2747 16.3579L16.506 15.6639L15.083 15.1896ZM18.4868 4.97829L19.9098 5.45263V5.45263L18.4868 4.97829ZM26.0282 14.7152L22.6245 4.50395L19.7784 5.45263L23.1822 15.6639L26.0282 14.7152ZM25.128 13.7834L25.1077 13.7762L24.1028 16.6029L24.1231 16.6101L25.128 13.7834ZM35.2592 17.4674L25.1382 13.7871L24.1129 16.6064L34.2339 20.2868L35.2592 17.4674ZM35.2592 22.9761C37.8314 22.0407 37.8314 18.4028 35.2592 17.4674L34.2339 20.2868C34.2426 20.29 34.2383 20.2897 34.2278 20.2813C34.2177 20.2733 34.2082 20.2629 34.201 20.252C34.1941 20.2416 34.191 20.2333 34.1896 20.2287C34.1884 20.2245 34.1884 20.2223 34.1884 20.2217C34.1884 20.2212 34.1884 20.219 34.1896 20.2148C34.191 20.2102 34.1941 20.2019 34.201 20.1915C34.2082 20.1806 34.2177 20.1702 34.2278 20.1622C34.2383 20.1538 34.2426 20.1535 34.2339 20.1567L35.2592 22.9761ZM25.1382 26.6564L35.2592 22.9761L34.2339 20.1567L24.1129 23.8371L25.1382 26.6564ZM25.1075 26.6674L25.1279 26.6601L24.1232 23.8334L24.1028 23.8406L25.1075 26.6674ZM22.6245 35.9394L26.0282 25.7283L23.1821 24.7796L19.7784 34.9907L22.6245 35.9394ZM17.0637 35.9394C17.9544 38.6114 21.7338 38.6114 22.6245 35.9394L19.7784 34.9907C19.775 35.0012 19.7748 34.9969 19.7834 34.9856C19.7917 34.9747 19.8027 34.9644 19.8143 34.9566C19.8252 34.9492 19.8338 34.9459 19.8383 34.9446C19.8405 34.9439 19.842 34.9436 19.8427 34.9435C19.8435 34.9434 19.8439 34.9434 19.8441 34.9434C19.8443 34.9434 19.8447 34.9434 19.8455 34.9435C19.8463 34.9436 19.8477 34.9439 19.85 34.9446C19.8544 34.9459 19.863 34.9492 19.874 34.9566C19.8856 34.9644 19.8965 34.9747 19.9048 34.9856C19.9134 34.9969 19.9133 35.0012 19.9098 34.9907L17.0637 35.9394ZM13.66 25.7283L17.0637 35.9394L19.9098 34.9907L16.5061 24.7796L13.66 25.7283ZM14.5604 26.6601L14.5806 26.6673L15.5855 23.8406L15.5653 23.8334L14.5604 26.6601ZM4.4292 22.9761L14.5502 26.6564L15.5754 23.8371L5.45443 20.1567L4.4292 22.9761ZM4.4292 17.4674C1.85693 18.4028 1.85693 22.0407 4.4292 22.9761L5.45443 20.1567C5.44572 20.1535 5.45003 20.1538 5.46055 20.1622C5.47068 20.1702 5.48015 20.1806 5.48739 20.1915C5.49426 20.2019 5.4974 20.2102 5.49873 20.2147C5.49998 20.219 5.5 20.2212 5.5 20.2217C5.5 20.2223 5.49998 20.2245 5.49873 20.2287C5.4974 20.2333 5.49426 20.2416 5.48739 20.252C5.48015 20.2629 5.47068 20.2733 5.46055 20.2813C5.45003 20.2897 5.44572 20.29 5.45443 20.2868L4.4292 17.4674ZM14.5502 13.7871L4.4292 17.4674L5.45443 20.2868L15.5754 16.6064L14.5502 13.7871ZM14.5805 13.7762L14.5604 13.7834L15.5653 16.6101L15.5855 16.6029L14.5805 13.7762ZM17.0637 4.50395L13.66 14.7152L16.506 15.6639L19.9098 5.45263L17.0637 4.50395ZM22.6245 4.50395C21.7338 1.83198 17.9544 1.83198 17.0637 4.50395L19.9098 5.45263C19.9133 5.4422 19.9134 5.44641 19.9048 5.45773C19.8965 5.46865 19.8856 5.47893 19.874 5.48678C19.863 5.49421 19.8544 5.49749 19.85 5.49881C19.8477 5.49947 19.8463 5.49974 19.8455 5.49985C19.8447 5.49996 19.8443 5.49997 19.8441 5.49997C19.8439 5.49997 19.8435 5.49996 19.8427 5.49985C19.842 5.49974 19.8405 5.49947 19.8383 5.49881C19.8338 5.49749 19.8252 5.49421 19.8143 5.48678C19.8027 5.47893 19.7917 5.46865 19.7834 5.45773C19.7748 5.44641 19.775 5.4422 19.7784 5.45263L22.6245 4.50395Z" fill="#EABB00" mask="url(#path-1-outside-1_549_6442)"/>
</svg>
