<svg width="23" height="23" viewBox="0 0 23 23" fill="none" xmlns="http://www.w3.org/2000/svg">
<path d="M12.6495 11.4998L8.91198 7.76233C8.73628 7.58663 8.64844 7.36302 8.64844 7.09149C8.64844 6.81997 8.73628 6.59636 8.91198 6.42066C9.08767 6.24497 9.31128 6.15712 9.58281 6.15712C9.85434 6.15712 10.078 6.24497 10.2536 6.42066L14.662 10.829C14.7578 10.9248 14.8259 11.0286 14.8661 11.1405C14.9064 11.2523 14.9262 11.3721 14.9255 11.4998C14.9255 11.6276 14.9057 11.7474 14.8661 11.8592C14.8265 11.971 14.7584 12.0748 14.662 12.1707L10.2536 16.579C10.0779 16.7547 9.85434 16.8425 9.58281 16.8425C9.31128 16.8425 9.08767 16.7547 8.91198 16.579C8.73628 16.4033 8.64844 16.1797 8.64844 15.9082C8.64844 15.6366 8.73628 15.413 8.91198 15.2373L12.6495 11.4998Z" fill="#CACDD2"/>
</svg>
