<svg width="19" height="19" viewBox="0 0 19 19" fill="none" xmlns="http://www.w3.org/2000/svg">
<path fill-rule="evenodd" clip-rule="evenodd" d="M4.75033 1.50418C4.3304 1.50418 3.92767 1.66266 3.63074 1.94474C3.33381 2.22683 3.16699 2.60942 3.16699 3.00835V15.0417C3.16699 15.4406 3.33381 15.8232 3.63074 16.1053C3.92767 16.3874 4.3304 16.5458 4.75033 16.5458H14.2503C14.6702 16.5458 15.073 16.3874 15.3699 16.1053C15.6668 15.8232 15.8337 15.4406 15.8337 15.0417V4.82388C15.8336 4.42498 15.6667 4.04245 15.3697 3.76043L13.4587 1.9449C13.1618 1.6628 12.7591 1.50427 12.3392 1.50418H4.75033ZM12.8554 8.11725C12.931 8.04787 12.9913 7.96488 13.0328 7.87313C13.0743 7.78137 13.0962 7.68268 13.0971 7.58282C13.098 7.48296 13.0779 7.38392 13.0381 7.2915C12.9983 7.19907 12.9396 7.1151 12.8652 7.04448C12.7909 6.97387 12.7025 6.91802 12.6052 6.88021C12.5079 6.84239 12.4037 6.82336 12.2985 6.82423C12.1934 6.8251 12.0895 6.84584 11.993 6.88526C11.8964 6.92468 11.809 6.98197 11.736 7.0538L8.37774 10.2449L7.25753 9.18069C7.10822 9.0437 6.90825 8.96789 6.70067 8.9696C6.4931 8.97132 6.29454 9.05041 6.14776 9.18986C6.00098 9.3293 5.91772 9.51793 5.91592 9.71512C5.91411 9.91232 5.99391 10.1023 6.13812 10.2441L7.76103 11.7867C7.8419 11.8635 7.93792 11.9245 8.0436 11.9661C8.14928 12.0077 8.26256 12.0291 8.37695 12.0291C8.49134 12.0291 8.60462 12.0077 8.7103 11.9661C8.81598 11.9245 8.912 11.8635 8.99287 11.7867L12.8554 8.11725Z" fill="#9FA4A9"/>
</svg>
